<mxfile host="app.diagrams.net" agent="Mozilla/5.0 (Windows NT 10.0; Win64; x64) AppleWebKit/537.36 (KHTML, like Gecko) Chrome/133.0.0.0 Safari/537.36" version="26.0.16" pages="11">
  <diagram name="exercicio1" id="LzyFSSV19Kv0499Qqpmr">
    <mxGraphModel dx="875" dy="471" grid="1" gridSize="10" guides="1" tooltips="1" connect="1" arrows="1" fold="1" page="1" pageScale="1" pageWidth="827" pageHeight="1169" math="0" shadow="0">
      <root>
        <mxCell id="0" />
        <mxCell id="1" parent="0" />
        <mxCell id="FpgmUWMd26mMU1l8DCf6-3" value="" style="edgeStyle=orthogonalEdgeStyle;rounded=0;orthogonalLoop=1;jettySize=auto;html=1;" parent="1" source="FpgmUWMd26mMU1l8DCf6-1" target="FpgmUWMd26mMU1l8DCf6-2" edge="1">
          <mxGeometry relative="1" as="geometry" />
        </mxCell>
        <mxCell id="FpgmUWMd26mMU1l8DCf6-1" value="&lt;font style=&quot;vertical-align: inherit;&quot;&gt;&lt;font style=&quot;vertical-align: inherit;&quot;&gt;&lt;font style=&quot;vertical-align: inherit;&quot;&gt;&lt;font style=&quot;vertical-align: inherit; font-size: 10px;&quot;&gt;Início&lt;/font&gt;&lt;/font&gt;&lt;/font&gt;&lt;/font&gt;" style="ellipse;whiteSpace=wrap;html=1;shadow=1;" parent="1" vertex="1">
          <mxGeometry x="340" y="30" width="100" height="40" as="geometry" />
        </mxCell>
        <mxCell id="FpgmUWMd26mMU1l8DCf6-9" value="" style="edgeStyle=orthogonalEdgeStyle;rounded=0;orthogonalLoop=1;jettySize=auto;html=1;" parent="1" source="FpgmUWMd26mMU1l8DCf6-2" target="FpgmUWMd26mMU1l8DCf6-8" edge="1">
          <mxGeometry relative="1" as="geometry" />
        </mxCell>
        <mxCell id="FpgmUWMd26mMU1l8DCf6-2" value="&lt;font style=&quot;vertical-align: inherit;&quot;&gt;&lt;font style=&quot;vertical-align: inherit;&quot;&gt;&lt;font style=&quot;vertical-align: inherit;&quot;&gt;&lt;font style=&quot;vertical-align: inherit; font-size: 10px;&quot;&gt;O cliente chega na loja&lt;/font&gt;&lt;/font&gt;&lt;/font&gt;&lt;/font&gt;" style="whiteSpace=wrap;html=1;rounded=1;glass=0;shadow=1;" parent="1" vertex="1">
          <mxGeometry x="330" y="90" width="120" height="30" as="geometry" />
        </mxCell>
        <mxCell id="FpgmUWMd26mMU1l8DCf6-11" value="" style="edgeStyle=orthogonalEdgeStyle;rounded=0;orthogonalLoop=1;jettySize=auto;html=1;" parent="1" source="FpgmUWMd26mMU1l8DCf6-8" target="FpgmUWMd26mMU1l8DCf6-10" edge="1">
          <mxGeometry relative="1" as="geometry" />
        </mxCell>
        <mxCell id="FpgmUWMd26mMU1l8DCf6-8" value="&lt;font style=&quot;vertical-align: inherit;&quot;&gt;&lt;font style=&quot;vertical-align: inherit;&quot;&gt;&lt;font style=&quot;vertical-align: inherit;&quot;&gt;&lt;font style=&quot;vertical-align: inherit;&quot;&gt;&lt;font style=&quot;vertical-align: inherit;&quot;&gt;&lt;font style=&quot;vertical-align: inherit; font-size: 10px;&quot;&gt;Vai até o balcão&lt;/font&gt;&lt;/font&gt;&lt;/font&gt;&lt;/font&gt;&lt;/font&gt;&lt;/font&gt;" style="whiteSpace=wrap;html=1;rounded=1;glass=0;shadow=1;" parent="1" vertex="1">
          <mxGeometry x="330" y="140" width="120" height="20" as="geometry" />
        </mxCell>
        <mxCell id="FpgmUWMd26mMU1l8DCf6-20" value="" style="edgeStyle=orthogonalEdgeStyle;rounded=0;orthogonalLoop=1;jettySize=auto;html=1;exitX=0.943;exitY=0.521;exitDx=0;exitDy=0;exitPerimeter=0;entryX=0;entryY=0.5;entryDx=0;entryDy=0;" parent="1" source="FpgmUWMd26mMU1l8DCf6-10" target="FpgmUWMd26mMU1l8DCf6-22" edge="1">
          <mxGeometry relative="1" as="geometry">
            <mxPoint x="545" y="216" as="targetPoint" />
          </mxGeometry>
        </mxCell>
        <mxCell id="FpgmUWMd26mMU1l8DCf6-26" value="" style="edgeStyle=orthogonalEdgeStyle;rounded=0;orthogonalLoop=1;jettySize=auto;html=1;exitX=0.051;exitY=0.472;exitDx=0;exitDy=0;exitPerimeter=0;" parent="1" source="FpgmUWMd26mMU1l8DCf6-10" target="FpgmUWMd26mMU1l8DCf6-25" edge="1">
          <mxGeometry relative="1" as="geometry" />
        </mxCell>
        <mxCell id="FpgmUWMd26mMU1l8DCf6-10" value="&lt;font style=&quot;vertical-align: inherit;&quot;&gt;&lt;font style=&quot;vertical-align: inherit; font-size: 10px;&quot;&gt;&lt;font style=&quot;vertical-align: inherit;&quot;&gt;&lt;font style=&quot;vertical-align: inherit;&quot;&gt;O cliente vai querer Café Expresso ?&lt;/font&gt;&lt;/font&gt;&lt;/font&gt;&lt;/font&gt;" style="rhombus;whiteSpace=wrap;html=1;rounded=1;glass=0;shadow=1;" parent="1" vertex="1">
          <mxGeometry x="315" y="180" width="150" height="70" as="geometry" />
        </mxCell>
        <mxCell id="FpgmUWMd26mMU1l8DCf6-14" value="&lt;font style=&quot;font-size: 10px;&quot;&gt;não&lt;/font&gt;" style="text;html=1;align=center;verticalAlign=middle;whiteSpace=wrap;rounded=0;" parent="1" vertex="1">
          <mxGeometry x="440" y="191" width="60" height="30" as="geometry" />
        </mxCell>
        <mxCell id="FpgmUWMd26mMU1l8DCf6-32" value="" style="edgeStyle=orthogonalEdgeStyle;rounded=0;orthogonalLoop=1;jettySize=auto;html=1;" parent="1" source="FpgmUWMd26mMU1l8DCf6-22" target="FpgmUWMd26mMU1l8DCf6-31" edge="1">
          <mxGeometry relative="1" as="geometry">
            <Array as="points">
              <mxPoint x="604" y="315" />
            </Array>
          </mxGeometry>
        </mxCell>
        <mxCell id="FpgmUWMd26mMU1l8DCf6-22" value="&lt;span style=&quot;font-size: 10px;&quot;&gt;O atendente vai preparar o Latte&lt;/span&gt;" style="whiteSpace=wrap;html=1;rounded=1;glass=0;shadow=1;" parent="1" vertex="1">
          <mxGeometry x="537" y="197" width="133" height="39" as="geometry" />
        </mxCell>
        <mxCell id="FpgmUWMd26mMU1l8DCf6-30" value="" style="edgeStyle=orthogonalEdgeStyle;rounded=0;orthogonalLoop=1;jettySize=auto;html=1;" parent="1" source="FpgmUWMd26mMU1l8DCf6-25" target="FpgmUWMd26mMU1l8DCf6-29" edge="1">
          <mxGeometry relative="1" as="geometry" />
        </mxCell>
        <mxCell id="FpgmUWMd26mMU1l8DCf6-25" value="&lt;font style=&quot;font-size: 10px;&quot;&gt;O atendente vai preparar o Café Expresso&lt;/font&gt;" style="whiteSpace=wrap;html=1;rounded=1;glass=0;shadow=1;" parent="1" vertex="1">
          <mxGeometry x="100" y="195" width="120" height="36" as="geometry" />
        </mxCell>
        <mxCell id="FpgmUWMd26mMU1l8DCf6-34" value="" style="edgeStyle=orthogonalEdgeStyle;rounded=0;orthogonalLoop=1;jettySize=auto;html=1;" parent="1" source="FpgmUWMd26mMU1l8DCf6-29" target="FpgmUWMd26mMU1l8DCf6-33" edge="1">
          <mxGeometry relative="1" as="geometry" />
        </mxCell>
        <mxCell id="FpgmUWMd26mMU1l8DCf6-29" value="&lt;font style=&quot;font-size: 10px;&quot;&gt;Entregar o café expresso para o cliente&lt;/font&gt;" style="whiteSpace=wrap;html=1;rounded=1;glass=0;shadow=1;" parent="1" vertex="1">
          <mxGeometry x="100" y="299" width="120" height="51" as="geometry" />
        </mxCell>
        <mxCell id="FpgmUWMd26mMU1l8DCf6-31" value="&lt;font style=&quot;font-size: 10px;&quot;&gt;Entregar o latte para o cliente&lt;/font&gt;" style="whiteSpace=wrap;html=1;rounded=1;glass=0;shadow=1;" parent="1" vertex="1">
          <mxGeometry x="360" y="297.5" width="120" height="35" as="geometry" />
        </mxCell>
        <mxCell id="FpgmUWMd26mMU1l8DCf6-33" value="&lt;font style=&quot;font-size: 10px;&quot;&gt;Fim.&lt;/font&gt;" style="ellipse;whiteSpace=wrap;html=1;rounded=1;glass=0;shadow=1;" parent="1" vertex="1">
          <mxGeometry x="120" y="415.5" width="80" height="34.5" as="geometry" />
        </mxCell>
        <mxCell id="FpgmUWMd26mMU1l8DCf6-35" style="edgeStyle=orthogonalEdgeStyle;rounded=0;orthogonalLoop=1;jettySize=auto;html=1;" parent="1" source="FpgmUWMd26mMU1l8DCf6-31" target="FpgmUWMd26mMU1l8DCf6-33" edge="1">
          <mxGeometry relative="1" as="geometry">
            <Array as="points">
              <mxPoint x="280" y="315" />
              <mxPoint x="280" y="433" />
            </Array>
          </mxGeometry>
        </mxCell>
        <mxCell id="FpgmUWMd26mMU1l8DCf6-36" value="&lt;span style=&quot;font-size: 10px;&quot;&gt;sim&lt;/span&gt;" style="text;html=1;align=center;verticalAlign=middle;whiteSpace=wrap;rounded=0;" parent="1" vertex="1">
          <mxGeometry x="280" y="190" width="60" height="30" as="geometry" />
        </mxCell>
      </root>
    </mxGraphModel>
  </diagram>
  <diagram id="RUnypsVdY3TiSdhE-9SY" name="exercico2">
    <mxGraphModel dx="1050" dy="565" grid="1" gridSize="10" guides="1" tooltips="1" connect="1" arrows="1" fold="1" page="1" pageScale="1" pageWidth="827" pageHeight="1169" math="0" shadow="0">
      <root>
        <mxCell id="0" />
        <mxCell id="1" parent="0" />
        <mxCell id="6DXZ8bFYtq37BVKiwOsS-3" value="" style="edgeStyle=orthogonalEdgeStyle;rounded=0;orthogonalLoop=1;jettySize=auto;html=1;" parent="1" source="6DXZ8bFYtq37BVKiwOsS-1" target="6DXZ8bFYtq37BVKiwOsS-2" edge="1">
          <mxGeometry relative="1" as="geometry" />
        </mxCell>
        <mxCell id="6DXZ8bFYtq37BVKiwOsS-1" value="&lt;font style=&quot;font-size: 10px;&quot;&gt;Inicio&lt;/font&gt;" style="ellipse;whiteSpace=wrap;html=1;shadow=1;" parent="1" vertex="1">
          <mxGeometry x="273.5" y="20" width="90" height="40" as="geometry" />
        </mxCell>
        <mxCell id="F1xMZQqGolJwO263UIr9-2" value="" style="edgeStyle=orthogonalEdgeStyle;rounded=0;orthogonalLoop=1;jettySize=auto;html=1;" parent="1" source="6DXZ8bFYtq37BVKiwOsS-2" target="F1xMZQqGolJwO263UIr9-1" edge="1">
          <mxGeometry relative="1" as="geometry" />
        </mxCell>
        <mxCell id="6DXZ8bFYtq37BVKiwOsS-2" value="&lt;font style=&quot;font-size: 10px;&quot;&gt;a pessoa vai verificar o clima do dia&lt;/font&gt;" style="whiteSpace=wrap;html=1;shadow=1;rounded=1;arcSize=23;" parent="1" vertex="1">
          <mxGeometry x="261" y="100" width="115" height="40" as="geometry" />
        </mxCell>
        <mxCell id="R8GO_xBlfPgvCmj4ufsa-2" value="" style="edgeStyle=orthogonalEdgeStyle;rounded=0;orthogonalLoop=1;jettySize=auto;html=1;exitX=0.064;exitY=0.545;exitDx=0;exitDy=0;exitPerimeter=0;" parent="1" source="F1xMZQqGolJwO263UIr9-1" target="R8GO_xBlfPgvCmj4ufsa-1" edge="1">
          <mxGeometry relative="1" as="geometry" />
        </mxCell>
        <mxCell id="R8GO_xBlfPgvCmj4ufsa-7" value="" style="edgeStyle=orthogonalEdgeStyle;rounded=0;orthogonalLoop=1;jettySize=auto;html=1;exitX=0.936;exitY=0.5;exitDx=0;exitDy=0;exitPerimeter=0;" parent="1" source="F1xMZQqGolJwO263UIr9-1" target="R8GO_xBlfPgvCmj4ufsa-6" edge="1">
          <mxGeometry relative="1" as="geometry" />
        </mxCell>
        <mxCell id="F1xMZQqGolJwO263UIr9-1" value="&lt;font style=&quot;font-size: 10px;&quot;&gt;está calor?&lt;/font&gt;" style="rhombus;whiteSpace=wrap;html=1;shadow=1;rounded=1;arcSize=23;" parent="1" vertex="1">
          <mxGeometry x="260" y="170" width="117.5" height="60" as="geometry" />
        </mxCell>
        <mxCell id="R8GO_xBlfPgvCmj4ufsa-1" value="&lt;font style=&quot;font-size: 10px;&quot;&gt;a pessoa vai vestir roupas leves e frescas&lt;/font&gt;" style="whiteSpace=wrap;html=1;shadow=1;rounded=1;arcSize=23;" parent="1" vertex="1">
          <mxGeometry x="50" y="182" width="130" height="42" as="geometry" />
        </mxCell>
        <mxCell id="R8GO_xBlfPgvCmj4ufsa-3" value="&lt;font style=&quot;font-size: 10px;&quot;&gt;sim&lt;/font&gt;" style="text;html=1;align=center;verticalAlign=middle;whiteSpace=wrap;rounded=0;" parent="1" vertex="1">
          <mxGeometry x="223" y="177" width="60" height="30" as="geometry" />
        </mxCell>
        <mxCell id="R8GO_xBlfPgvCmj4ufsa-15" value="" style="edgeStyle=orthogonalEdgeStyle;rounded=0;orthogonalLoop=1;jettySize=auto;html=1;" parent="1" source="R8GO_xBlfPgvCmj4ufsa-6" target="R8GO_xBlfPgvCmj4ufsa-9" edge="1">
          <mxGeometry relative="1" as="geometry" />
        </mxCell>
        <mxCell id="R8GO_xBlfPgvCmj4ufsa-6" value="&lt;font style=&quot;font-size: 10px;&quot;&gt;a pessoa vai vestir roupas de frio um casaco por exemplo&lt;/font&gt;" style="whiteSpace=wrap;html=1;shadow=1;rounded=1;arcSize=23;" parent="1" vertex="1">
          <mxGeometry x="456.25" y="175" width="123.75" height="50" as="geometry" />
        </mxCell>
        <mxCell id="R8GO_xBlfPgvCmj4ufsa-8" value="&lt;span style=&quot;font-size: 10px;&quot;&gt;não&lt;/span&gt;" style="text;html=1;align=center;verticalAlign=middle;whiteSpace=wrap;rounded=0;" parent="1" vertex="1">
          <mxGeometry x="354" y="174" width="60" height="30" as="geometry" />
        </mxCell>
        <mxCell id="R8GO_xBlfPgvCmj4ufsa-12" value="" style="edgeStyle=orthogonalEdgeStyle;rounded=0;orthogonalLoop=1;jettySize=auto;html=1;exitX=0.038;exitY=0.516;exitDx=0;exitDy=0;exitPerimeter=0;" parent="1" source="R8GO_xBlfPgvCmj4ufsa-9" target="R8GO_xBlfPgvCmj4ufsa-11" edge="1">
          <mxGeometry relative="1" as="geometry" />
        </mxCell>
        <mxCell id="R8GO_xBlfPgvCmj4ufsa-20" value="" style="edgeStyle=orthogonalEdgeStyle;rounded=0;orthogonalLoop=1;jettySize=auto;html=1;exitX=0.969;exitY=0.5;exitDx=0;exitDy=0;exitPerimeter=0;" parent="1" source="R8GO_xBlfPgvCmj4ufsa-9" target="R8GO_xBlfPgvCmj4ufsa-19" edge="1">
          <mxGeometry relative="1" as="geometry" />
        </mxCell>
        <mxCell id="R8GO_xBlfPgvCmj4ufsa-9" value="&lt;font style=&quot;font-size: 10px;&quot;&gt;o dia tem previsão de chuva?&lt;/font&gt;" style="rhombus;whiteSpace=wrap;html=1;shadow=1;rounded=1;arcSize=23;" parent="1" vertex="1">
          <mxGeometry x="452.18" y="260" width="131.88" height="80" as="geometry" />
        </mxCell>
        <mxCell id="R8GO_xBlfPgvCmj4ufsa-22" value="" style="edgeStyle=orthogonalEdgeStyle;rounded=0;orthogonalLoop=1;jettySize=auto;html=1;" parent="1" source="R8GO_xBlfPgvCmj4ufsa-11" target="R8GO_xBlfPgvCmj4ufsa-21" edge="1">
          <mxGeometry relative="1" as="geometry" />
        </mxCell>
        <mxCell id="R8GO_xBlfPgvCmj4ufsa-11" value="&lt;font style=&quot;font-size: 10px;&quot;&gt;pode sair de casa sem o guarda-chuva&lt;/font&gt;" style="whiteSpace=wrap;html=1;shadow=1;rounded=1;arcSize=23;" parent="1" vertex="1">
          <mxGeometry x="273.5" y="330" width="120" height="40" as="geometry" />
        </mxCell>
        <mxCell id="R8GO_xBlfPgvCmj4ufsa-16" value="&lt;span style=&quot;font-size: 10px;&quot;&gt;não&lt;/span&gt;" style="text;html=1;align=center;verticalAlign=middle;whiteSpace=wrap;rounded=0;" parent="1" vertex="1">
          <mxGeometry x="414" y="277" width="60" height="30" as="geometry" />
        </mxCell>
        <mxCell id="R8GO_xBlfPgvCmj4ufsa-17" value="&lt;font style=&quot;font-size: 10px;&quot;&gt;sim&lt;/font&gt;" style="text;html=1;align=center;verticalAlign=middle;whiteSpace=wrap;rounded=0;" parent="1" vertex="1">
          <mxGeometry x="570" y="277" width="60" height="30" as="geometry" />
        </mxCell>
        <mxCell id="R8GO_xBlfPgvCmj4ufsa-18" style="edgeStyle=orthogonalEdgeStyle;rounded=0;orthogonalLoop=1;jettySize=auto;html=1;entryX=0.164;entryY=0.318;entryDx=0;entryDy=0;entryPerimeter=0;" parent="1" source="R8GO_xBlfPgvCmj4ufsa-1" target="R8GO_xBlfPgvCmj4ufsa-9" edge="1">
          <mxGeometry relative="1" as="geometry">
            <Array as="points">
              <mxPoint x="121" y="250" />
              <mxPoint x="474" y="250" />
            </Array>
          </mxGeometry>
        </mxCell>
        <mxCell id="R8GO_xBlfPgvCmj4ufsa-26" style="edgeStyle=orthogonalEdgeStyle;rounded=0;orthogonalLoop=1;jettySize=auto;html=1;entryX=1;entryY=0.5;entryDx=0;entryDy=0;" parent="1" source="R8GO_xBlfPgvCmj4ufsa-19" target="R8GO_xBlfPgvCmj4ufsa-21" edge="1">
          <mxGeometry relative="1" as="geometry">
            <Array as="points">
              <mxPoint x="700" y="455" />
            </Array>
          </mxGeometry>
        </mxCell>
        <mxCell id="R8GO_xBlfPgvCmj4ufsa-19" value="&lt;font style=&quot;font-size: 10px;&quot;&gt;pegar o guarda-chuva&lt;/font&gt;" style="whiteSpace=wrap;html=1;shadow=1;rounded=1;arcSize=23;" parent="1" vertex="1">
          <mxGeometry x="640" y="330" width="120" height="40" as="geometry" />
        </mxCell>
        <mxCell id="R8GO_xBlfPgvCmj4ufsa-25" value="" style="edgeStyle=orthogonalEdgeStyle;rounded=0;orthogonalLoop=1;jettySize=auto;html=1;" parent="1" source="R8GO_xBlfPgvCmj4ufsa-21" target="R8GO_xBlfPgvCmj4ufsa-24" edge="1">
          <mxGeometry relative="1" as="geometry" />
        </mxCell>
        <mxCell id="R8GO_xBlfPgvCmj4ufsa-21" value="&lt;font style=&quot;font-size: 10px;&quot;&gt;sair de casa&amp;nbsp;&lt;/font&gt;" style="whiteSpace=wrap;html=1;shadow=1;rounded=1;arcSize=23;" parent="1" vertex="1">
          <mxGeometry x="276" y="440" width="116.5" height="30" as="geometry" />
        </mxCell>
        <mxCell id="R8GO_xBlfPgvCmj4ufsa-24" value="&lt;font style=&quot;font-size: 10px;&quot;&gt;Fim.&lt;/font&gt;" style="ellipse;whiteSpace=wrap;html=1;shadow=1;rounded=1;arcSize=23;" parent="1" vertex="1">
          <mxGeometry x="84.5" y="437" width="72.25" height="35" as="geometry" />
        </mxCell>
      </root>
    </mxGraphModel>
  </diagram>
  <diagram id="o5gliTN4sPgV5yCNvnCf" name="exercicio03">
    <mxGraphModel dx="1687" dy="918" grid="1" gridSize="10" guides="1" tooltips="1" connect="1" arrows="1" fold="1" page="1" pageScale="1" pageWidth="827" pageHeight="1169" math="0" shadow="0">
      <root>
        <mxCell id="0" />
        <mxCell id="1" parent="0" />
        <mxCell id="Y1_zCfDmHpQ_-ihY2MlN-2" value="" style="edgeStyle=orthogonalEdgeStyle;rounded=0;orthogonalLoop=1;jettySize=auto;html=1;" parent="1" source="dw7qdCY8uV6_UqUB94FV-1" target="Y1_zCfDmHpQ_-ihY2MlN-1" edge="1">
          <mxGeometry relative="1" as="geometry" />
        </mxCell>
        <mxCell id="dw7qdCY8uV6_UqUB94FV-1" value="&lt;font style=&quot;font-size: 10px;&quot;&gt;Inicio&lt;/font&gt;" style="ellipse;whiteSpace=wrap;html=1;shadow=1;" parent="1" vertex="1">
          <mxGeometry x="203" y="20" width="80" height="40" as="geometry" />
        </mxCell>
        <mxCell id="Y1_zCfDmHpQ_-ihY2MlN-6" value="" style="edgeStyle=orthogonalEdgeStyle;rounded=0;orthogonalLoop=1;jettySize=auto;html=1;" parent="1" source="Y1_zCfDmHpQ_-ihY2MlN-1" target="Y1_zCfDmHpQ_-ihY2MlN-5" edge="1">
          <mxGeometry relative="1" as="geometry" />
        </mxCell>
        <mxCell id="Y1_zCfDmHpQ_-ihY2MlN-1" value="&lt;font style=&quot;font-size: 10px;&quot;&gt;O motorista vai informar o tempo em horas ficado no estacionamento&amp;nbsp;&lt;/font&gt;" style="whiteSpace=wrap;html=1;shadow=1;rounded=1;" parent="1" vertex="1">
          <mxGeometry x="160" y="90" width="166" height="40" as="geometry" />
        </mxCell>
        <mxCell id="Y1_zCfDmHpQ_-ihY2MlN-8" value="" style="edgeStyle=orthogonalEdgeStyle;rounded=0;orthogonalLoop=1;jettySize=auto;html=1;" parent="1" source="Y1_zCfDmHpQ_-ihY2MlN-5" target="Y1_zCfDmHpQ_-ihY2MlN-7" edge="1">
          <mxGeometry relative="1" as="geometry">
            <Array as="points">
              <mxPoint x="110" y="205" />
            </Array>
          </mxGeometry>
        </mxCell>
        <mxCell id="TGmDQ0VWojUxESYYyNB0-1" style="edgeStyle=orthogonalEdgeStyle;rounded=0;orthogonalLoop=1;jettySize=auto;html=1;entryX=0.5;entryY=0;entryDx=0;entryDy=0;" parent="1" source="Y1_zCfDmHpQ_-ihY2MlN-5" target="Y1_zCfDmHpQ_-ihY2MlN-13" edge="1">
          <mxGeometry relative="1" as="geometry">
            <Array as="points">
              <mxPoint x="443" y="205" />
            </Array>
          </mxGeometry>
        </mxCell>
        <mxCell id="Y1_zCfDmHpQ_-ihY2MlN-5" value="&lt;font style=&quot;font-size: 10px;&quot;&gt;O tempo foi de até 1 hora ?&lt;/font&gt;" style="rhombus;whiteSpace=wrap;html=1;shadow=1;rounded=1;" parent="1" vertex="1">
          <mxGeometry x="157.75" y="170" width="170.5" height="70" as="geometry" />
        </mxCell>
        <mxCell id="NAwh9zqeP2Oqc5Sn7m73-22" style="edgeStyle=orthogonalEdgeStyle;rounded=0;orthogonalLoop=1;jettySize=auto;html=1;entryX=0.5;entryY=0;entryDx=0;entryDy=0;" edge="1" parent="1" source="Y1_zCfDmHpQ_-ihY2MlN-7" target="NAwh9zqeP2Oqc5Sn7m73-18">
          <mxGeometry relative="1" as="geometry" />
        </mxCell>
        <mxCell id="Y1_zCfDmHpQ_-ihY2MlN-7" value="&lt;font style=&quot;font-size: 10px;&quot;&gt;O valor cobrado será de R$ 15, 00&lt;/font&gt;" style="whiteSpace=wrap;html=1;shadow=1;rounded=1;" parent="1" vertex="1">
          <mxGeometry x="50" y="270" width="120" height="40" as="geometry" />
        </mxCell>
        <mxCell id="Y1_zCfDmHpQ_-ihY2MlN-9" value="&lt;font style=&quot;font-size: 10px;&quot;&gt;sim&lt;/font&gt;" style="text;html=1;align=center;verticalAlign=middle;whiteSpace=wrap;rounded=0;" parent="1" vertex="1">
          <mxGeometry x="110" y="180" width="60" height="30" as="geometry" />
        </mxCell>
        <mxCell id="TGmDQ0VWojUxESYYyNB0-2" style="edgeStyle=orthogonalEdgeStyle;rounded=0;orthogonalLoop=1;jettySize=auto;html=1;entryX=0.5;entryY=0;entryDx=0;entryDy=0;" parent="1" source="Y1_zCfDmHpQ_-ihY2MlN-13" target="Y1_zCfDmHpQ_-ihY2MlN-18" edge="1">
          <mxGeometry relative="1" as="geometry">
            <Array as="points">
              <mxPoint x="275" y="298" />
            </Array>
          </mxGeometry>
        </mxCell>
        <mxCell id="TGmDQ0VWojUxESYYyNB0-4" value="" style="edgeStyle=orthogonalEdgeStyle;rounded=0;orthogonalLoop=1;jettySize=auto;html=1;" parent="1" source="Y1_zCfDmHpQ_-ihY2MlN-13" target="TGmDQ0VWojUxESYYyNB0-3" edge="1">
          <mxGeometry relative="1" as="geometry">
            <Array as="points">
              <mxPoint x="640" y="298" />
            </Array>
          </mxGeometry>
        </mxCell>
        <mxCell id="Y1_zCfDmHpQ_-ihY2MlN-13" value="&lt;span style=&quot;font-size: 10px; background-color: transparent; color: light-dark(rgb(0, 0, 0), rgb(255, 255, 255));&quot;&gt;O tempo foi mais de 1 hora até 7&amp;nbsp;&lt;/span&gt;&lt;span style=&quot;background-color: transparent; color: light-dark(rgb(0, 0, 0), rgb(255, 255, 255)); font-size: 10px;&quot;&gt;horas&lt;/span&gt;&lt;div&gt;&lt;span style=&quot;background-color: transparent; color: light-dark(rgb(0, 0, 0), rgb(255, 255, 255)); font-size: 10px;&quot;&gt;&amp;nbsp;&lt;/span&gt;&lt;span style=&quot;background-color: transparent; color: light-dark(rgb(0, 0, 0), rgb(255, 255, 255)); font-size: 10px;&quot;&gt;(tempo &amp;gt; 1 hora) e (tempo &amp;lt; 7 horas) ?&lt;/span&gt;&lt;/div&gt;" style="rhombus;whiteSpace=wrap;html=1;rounded=1;shadow=1;align=center;" parent="1" vertex="1">
          <mxGeometry x="326" y="245" width="234" height="105" as="geometry" />
        </mxCell>
        <mxCell id="Y1_zCfDmHpQ_-ihY2MlN-15" value="&lt;span style=&quot;font-size: 10px;&quot;&gt;não&lt;/span&gt;" style="text;html=1;align=center;verticalAlign=middle;whiteSpace=wrap;rounded=0;" parent="1" vertex="1">
          <mxGeometry x="310" y="180" width="60" height="30" as="geometry" />
        </mxCell>
        <mxCell id="NAwh9zqeP2Oqc5Sn7m73-23" style="edgeStyle=orthogonalEdgeStyle;rounded=0;orthogonalLoop=1;jettySize=auto;html=1;" edge="1" parent="1" source="Y1_zCfDmHpQ_-ihY2MlN-18" target="NAwh9zqeP2Oqc5Sn7m73-18">
          <mxGeometry relative="1" as="geometry" />
        </mxCell>
        <mxCell id="Y1_zCfDmHpQ_-ihY2MlN-18" value="&lt;font style=&quot;font-size: 10px;&quot;&gt;O valor cobrado será R$ 15, 00 + R$ 3, 00 por hora adicional&amp;nbsp;&lt;/font&gt;&lt;span style=&quot;background-color: transparent; color: light-dark(rgb(0, 0, 0), rgb(255, 255, 255)); font-size: 9px;&quot;&gt;&amp;nbsp;&lt;/span&gt;&lt;div&gt;&lt;span style=&quot;background-color: transparent; color: light-dark(rgb(0, 0, 0), rgb(255, 255, 255)); font-size: 9px;&quot;&gt;total = 15 + (tempo-1) * 3&lt;/span&gt;&lt;/div&gt;" style="rounded=1;whiteSpace=wrap;html=1;shadow=1;" parent="1" vertex="1">
          <mxGeometry x="170" y="350" width="210" height="40" as="geometry" />
        </mxCell>
        <mxCell id="Y1_zCfDmHpQ_-ihY2MlN-20" value="&lt;font style=&quot;font-size: 10px;&quot;&gt;sim&lt;/font&gt;" style="text;html=1;align=center;verticalAlign=middle;whiteSpace=wrap;rounded=0;" parent="1" vertex="1">
          <mxGeometry x="283" y="270" width="60" height="30" as="geometry" />
        </mxCell>
        <mxCell id="TGmDQ0VWojUxESYYyNB0-7" value="" style="edgeStyle=orthogonalEdgeStyle;rounded=0;orthogonalLoop=1;jettySize=auto;html=1;" parent="1" source="TGmDQ0VWojUxESYYyNB0-3" target="TGmDQ0VWojUxESYYyNB0-6" edge="1">
          <mxGeometry relative="1" as="geometry" />
        </mxCell>
        <mxCell id="NAwh9zqeP2Oqc5Sn7m73-2" value="" style="edgeStyle=orthogonalEdgeStyle;rounded=0;orthogonalLoop=1;jettySize=auto;html=1;" edge="1" parent="1" source="TGmDQ0VWojUxESYYyNB0-3" target="NAwh9zqeP2Oqc5Sn7m73-1">
          <mxGeometry relative="1" as="geometry">
            <Array as="points">
              <mxPoint x="770" y="440" />
            </Array>
          </mxGeometry>
        </mxCell>
        <mxCell id="TGmDQ0VWojUxESYYyNB0-3" value="&lt;span style=&quot;color: light-dark(rgb(0, 0, 0), rgb(255, 255, 255)); background-color: transparent; font-size: 10px;&quot;&gt;O tempo foi de 7 hora até 24&amp;nbsp;&lt;/span&gt;&lt;span style=&quot;color: light-dark(rgb(0, 0, 0), rgb(255, 255, 255)); background-color: transparent; font-size: 10px;&quot;&gt;horas&lt;/span&gt;&lt;div&gt;&lt;span style=&quot;background-color: transparent; color: light-dark(rgb(0, 0, 0), rgb(255, 255, 255)); font-size: 10px;&quot;&gt;&amp;nbsp;&lt;/span&gt;&lt;span style=&quot;background-color: transparent; color: light-dark(rgb(0, 0, 0), rgb(255, 255, 255)); font-size: 10px;&quot;&gt;(tempo &amp;gt;= 7 hora) e (tempo &amp;lt;=24 horas) ?&lt;/span&gt;&lt;/div&gt;" style="rhombus;whiteSpace=wrap;html=1;rounded=1;shadow=1;" parent="1" vertex="1">
          <mxGeometry x="525" y="390" width="230" height="100" as="geometry" />
        </mxCell>
        <mxCell id="TGmDQ0VWojUxESYYyNB0-5" value="&lt;span style=&quot;font-size: 10px;&quot;&gt;não&lt;/span&gt;" style="text;html=1;align=center;verticalAlign=middle;whiteSpace=wrap;rounded=0;" parent="1" vertex="1">
          <mxGeometry x="530" y="270" width="60" height="30" as="geometry" />
        </mxCell>
        <mxCell id="NAwh9zqeP2Oqc5Sn7m73-24" style="edgeStyle=orthogonalEdgeStyle;rounded=0;orthogonalLoop=1;jettySize=auto;html=1;" edge="1" parent="1" source="TGmDQ0VWojUxESYYyNB0-6" target="NAwh9zqeP2Oqc5Sn7m73-18">
          <mxGeometry relative="1" as="geometry" />
        </mxCell>
        <mxCell id="TGmDQ0VWojUxESYYyNB0-6" value="&lt;font style=&quot;font-size: 10px;&quot;&gt;O valor cobrado será de R$ 30, 00&lt;/font&gt;" style="whiteSpace=wrap;html=1;rounded=1;shadow=1;" parent="1" vertex="1">
          <mxGeometry x="300" y="425" width="170" height="30" as="geometry" />
        </mxCell>
        <mxCell id="TGmDQ0VWojUxESYYyNB0-8" value="&lt;font style=&quot;font-size: 10px;&quot;&gt;sim&lt;/font&gt;" style="text;html=1;align=center;verticalAlign=middle;whiteSpace=wrap;rounded=0;" parent="1" vertex="1">
          <mxGeometry x="490" y="407" width="60" height="30" as="geometry" />
        </mxCell>
        <mxCell id="NAwh9zqeP2Oqc5Sn7m73-5" value="" style="edgeStyle=orthogonalEdgeStyle;rounded=0;orthogonalLoop=1;jettySize=auto;html=1;" edge="1" parent="1" source="NAwh9zqeP2Oqc5Sn7m73-1" target="NAwh9zqeP2Oqc5Sn7m73-4">
          <mxGeometry relative="1" as="geometry" />
        </mxCell>
        <mxCell id="NAwh9zqeP2Oqc5Sn7m73-19" style="edgeStyle=orthogonalEdgeStyle;rounded=0;orthogonalLoop=1;jettySize=auto;html=1;entryX=0.5;entryY=0;entryDx=0;entryDy=0;" edge="1" parent="1" source="NAwh9zqeP2Oqc5Sn7m73-1" target="NAwh9zqeP2Oqc5Sn7m73-7">
          <mxGeometry relative="1" as="geometry">
            <Array as="points">
              <mxPoint x="937" y="550" />
              <mxPoint x="937" y="565" />
            </Array>
          </mxGeometry>
        </mxCell>
        <mxCell id="NAwh9zqeP2Oqc5Sn7m73-1" value="&lt;span style=&quot;color: light-dark(rgb(0, 0, 0), rgb(255, 255, 255)); background-color: transparent; font-size: 10px;&quot;&gt;O tempo foi de 24 hora até 34&amp;nbsp;&lt;/span&gt;&lt;span style=&quot;color: light-dark(rgb(0, 0, 0), rgb(255, 255, 255)); background-color: transparent; font-size: 10px;&quot;&gt;horas&lt;/span&gt;&lt;div&gt;&lt;span style=&quot;background-color: transparent; color: light-dark(rgb(0, 0, 0), rgb(255, 255, 255)); font-size: 10px;&quot;&gt;&amp;nbsp;&lt;/span&gt;&lt;span style=&quot;background-color: transparent; color: light-dark(rgb(0, 0, 0), rgb(255, 255, 255)); font-size: 10px;&quot;&gt;(tempo &amp;gt;= 24 hora) e (tempo &amp;lt;= 34 horas) ?&lt;/span&gt;&lt;/div&gt;" style="rhombus;whiteSpace=wrap;html=1;rounded=1;shadow=1;" vertex="1" parent="1">
          <mxGeometry x="660" y="500" width="230" height="100" as="geometry" />
        </mxCell>
        <mxCell id="NAwh9zqeP2Oqc5Sn7m73-3" value="&lt;span style=&quot;font-size: 10px;&quot;&gt;não&lt;/span&gt;" style="text;html=1;align=center;verticalAlign=middle;whiteSpace=wrap;rounded=0;" vertex="1" parent="1">
          <mxGeometry x="724" y="407" width="60" height="30" as="geometry" />
        </mxCell>
        <mxCell id="NAwh9zqeP2Oqc5Sn7m73-25" style="edgeStyle=orthogonalEdgeStyle;rounded=0;orthogonalLoop=1;jettySize=auto;html=1;" edge="1" parent="1" source="NAwh9zqeP2Oqc5Sn7m73-4" target="NAwh9zqeP2Oqc5Sn7m73-18">
          <mxGeometry relative="1" as="geometry" />
        </mxCell>
        <mxCell id="NAwh9zqeP2Oqc5Sn7m73-4" value="&lt;font style=&quot;font-size: 10px;&quot;&gt;O valor cobrado será de R$ 30,00 + R$ 3,00 por hora adicional&lt;/font&gt;&lt;div&gt;&lt;font style=&quot;font-size: 10px;&quot;&gt;total = 30 + (tempo - 24) * 3&lt;/font&gt;&lt;/div&gt;" style="whiteSpace=wrap;html=1;rounded=1;shadow=1;" vertex="1" parent="1">
          <mxGeometry x="328.25" y="525" width="195" height="50" as="geometry" />
        </mxCell>
        <mxCell id="NAwh9zqeP2Oqc5Sn7m73-6" value="&lt;font style=&quot;font-size: 10px;&quot;&gt;sim&lt;/font&gt;" style="text;html=1;align=center;verticalAlign=middle;whiteSpace=wrap;rounded=0;" vertex="1" parent="1">
          <mxGeometry x="620" y="520" width="60" height="30" as="geometry" />
        </mxCell>
        <mxCell id="NAwh9zqeP2Oqc5Sn7m73-13" value="" style="edgeStyle=orthogonalEdgeStyle;rounded=0;orthogonalLoop=1;jettySize=auto;html=1;" edge="1" parent="1" source="NAwh9zqeP2Oqc5Sn7m73-7" target="NAwh9zqeP2Oqc5Sn7m73-12">
          <mxGeometry relative="1" as="geometry" />
        </mxCell>
        <mxCell id="NAwh9zqeP2Oqc5Sn7m73-21" style="edgeStyle=orthogonalEdgeStyle;rounded=0;orthogonalLoop=1;jettySize=auto;html=1;entryX=1;entryY=0.5;entryDx=0;entryDy=0;" edge="1" parent="1" source="NAwh9zqeP2Oqc5Sn7m73-7" target="NAwh9zqeP2Oqc5Sn7m73-15">
          <mxGeometry relative="1" as="geometry" />
        </mxCell>
        <mxCell id="NAwh9zqeP2Oqc5Sn7m73-7" value="&lt;span style=&quot;color: light-dark(rgb(0, 0, 0), rgb(255, 255, 255)); background-color: transparent; font-size: 10px;&quot;&gt;O tempo foi de 34 hora até 48&amp;nbsp;&lt;/span&gt;&lt;span style=&quot;color: light-dark(rgb(0, 0, 0), rgb(255, 255, 255)); background-color: transparent; font-size: 10px;&quot;&gt;horas&lt;/span&gt;&lt;div&gt;&lt;span style=&quot;background-color: transparent; color: light-dark(rgb(0, 0, 0), rgb(255, 255, 255)); font-size: 10px;&quot;&gt;&amp;nbsp;&lt;/span&gt;&lt;span style=&quot;background-color: transparent; color: light-dark(rgb(0, 0, 0), rgb(255, 255, 255)); font-size: 10px;&quot;&gt;(tempo &amp;gt;= 34 hora) e (tempo &amp;lt;= 48 horas) ?&lt;/span&gt;&lt;/div&gt;" style="rhombus;whiteSpace=wrap;html=1;rounded=1;shadow=1;" vertex="1" parent="1">
          <mxGeometry x="822.5" y="585" width="230" height="100" as="geometry" />
        </mxCell>
        <mxCell id="NAwh9zqeP2Oqc5Sn7m73-11" value="&lt;span style=&quot;font-size: 10px;&quot;&gt;não&lt;/span&gt;" style="text;html=1;align=center;verticalAlign=middle;whiteSpace=wrap;rounded=0;" vertex="1" parent="1">
          <mxGeometry x="860" y="520" width="60" height="30" as="geometry" />
        </mxCell>
        <mxCell id="NAwh9zqeP2Oqc5Sn7m73-26" style="edgeStyle=orthogonalEdgeStyle;rounded=0;orthogonalLoop=1;jettySize=auto;html=1;entryX=0.5;entryY=0;entryDx=0;entryDy=0;" edge="1" parent="1" source="NAwh9zqeP2Oqc5Sn7m73-12" target="NAwh9zqeP2Oqc5Sn7m73-18">
          <mxGeometry relative="1" as="geometry" />
        </mxCell>
        <mxCell id="NAwh9zqeP2Oqc5Sn7m73-12" value="&lt;font style=&quot;font-size: 10px;&quot;&gt;O valor cobrado vai ser de R$ 60,00&lt;/font&gt;" style="whiteSpace=wrap;html=1;rounded=1;shadow=1;" vertex="1" parent="1">
          <mxGeometry x="525" y="620" width="205" height="30" as="geometry" />
        </mxCell>
        <mxCell id="NAwh9zqeP2Oqc5Sn7m73-14" value="&lt;font style=&quot;font-size: 10px;&quot;&gt;sim&lt;/font&gt;" style="text;html=1;align=center;verticalAlign=middle;whiteSpace=wrap;rounded=0;" vertex="1" parent="1">
          <mxGeometry x="784" y="610" width="60" height="30" as="geometry" />
        </mxCell>
        <mxCell id="NAwh9zqeP2Oqc5Sn7m73-27" style="edgeStyle=orthogonalEdgeStyle;rounded=0;orthogonalLoop=1;jettySize=auto;html=1;" edge="1" parent="1" source="NAwh9zqeP2Oqc5Sn7m73-15" target="NAwh9zqeP2Oqc5Sn7m73-18">
          <mxGeometry relative="1" as="geometry" />
        </mxCell>
        <mxCell id="NAwh9zqeP2Oqc5Sn7m73-15" value="&lt;font style=&quot;font-size: 10px;&quot;&gt;O valor cobrado vai se de R$ 60, 00 + R$ 3,00 por hora adicional&lt;/font&gt;&lt;div&gt;&lt;font style=&quot;font-size: 10px;&quot;&gt;total =&lt;span style=&quot;background-color: transparent; color: light-dark(rgb(0, 0, 0), rgb(255, 255, 255));&quot;&gt;&amp;nbsp;(30 * (tempo // 24)) + ((tempo % 24) * 3)&lt;/span&gt;&lt;/font&gt;&lt;/div&gt;" style="whiteSpace=wrap;html=1;rounded=1;shadow=1;" vertex="1" parent="1">
          <mxGeometry x="599" y="720" width="245" height="60" as="geometry" />
        </mxCell>
        <mxCell id="NAwh9zqeP2Oqc5Sn7m73-17" value="&lt;span style=&quot;font-size: 10px;&quot;&gt;não&lt;/span&gt;" style="text;html=1;align=center;verticalAlign=middle;whiteSpace=wrap;rounded=0;" vertex="1" parent="1">
          <mxGeometry x="930" y="680" width="60" height="30" as="geometry" />
        </mxCell>
        <mxCell id="NAwh9zqeP2Oqc5Sn7m73-18" value="&lt;span style=&quot;font-size: 10px;&quot;&gt;Fim.&lt;/span&gt;" style="ellipse;whiteSpace=wrap;html=1;shadow=1;" vertex="1" parent="1">
          <mxGeometry x="70" y="730" width="80" height="40" as="geometry" />
        </mxCell>
      </root>
    </mxGraphModel>
  </diagram>
  <diagram id="b-0oaiy9r6FpCSEaQVXw" name="exercicio4">
    <mxGraphModel dx="1050" dy="565" grid="1" gridSize="10" guides="1" tooltips="1" connect="1" arrows="1" fold="1" page="1" pageScale="1" pageWidth="827" pageHeight="1169" math="0" shadow="0">
      <root>
        <mxCell id="0" />
        <mxCell id="1" parent="0" />
        <mxCell id="slKX_kOUd4sJ9-ozoMOi-2" value="" style="edgeStyle=orthogonalEdgeStyle;rounded=0;orthogonalLoop=1;jettySize=auto;html=1;" parent="1" source="Y_6Yy2CLX-2vImQg1bhn-1" target="slKX_kOUd4sJ9-ozoMOi-1" edge="1">
          <mxGeometry relative="1" as="geometry" />
        </mxCell>
        <mxCell id="Y_6Yy2CLX-2vImQg1bhn-1" value="&lt;font style=&quot;font-size: 10px;&quot;&gt;Inicio&lt;/font&gt;" style="ellipse;whiteSpace=wrap;html=1;shadow=1;" parent="1" vertex="1">
          <mxGeometry x="357.5" y="40" width="90" height="40" as="geometry" />
        </mxCell>
        <mxCell id="slKX_kOUd4sJ9-ozoMOi-4" value="" style="edgeStyle=orthogonalEdgeStyle;rounded=0;orthogonalLoop=1;jettySize=auto;html=1;" parent="1" source="slKX_kOUd4sJ9-ozoMOi-1" target="slKX_kOUd4sJ9-ozoMOi-3" edge="1">
          <mxGeometry relative="1" as="geometry" />
        </mxCell>
        <mxCell id="slKX_kOUd4sJ9-ozoMOi-1" value="&lt;font style=&quot;font-size: 10px;&quot;&gt;Pedir para o usuário digitar o nome&amp;nbsp;&lt;/font&gt;" style="whiteSpace=wrap;html=1;shadow=1;rounded=1;" parent="1" vertex="1">
          <mxGeometry x="325.5" y="110" width="155" height="30" as="geometry" />
        </mxCell>
        <mxCell id="slKX_kOUd4sJ9-ozoMOi-6" value="" style="edgeStyle=orthogonalEdgeStyle;rounded=0;orthogonalLoop=1;jettySize=auto;html=1;" parent="1" source="slKX_kOUd4sJ9-ozoMOi-3" target="slKX_kOUd4sJ9-ozoMOi-5" edge="1">
          <mxGeometry relative="1" as="geometry" />
        </mxCell>
        <mxCell id="slKX_kOUd4sJ9-ozoMOi-3" value="&lt;font style=&quot;font-size: 10px;&quot;&gt;guardar o nome do usuário na variável &quot;nome&quot;&lt;/font&gt;" style="whiteSpace=wrap;html=1;shadow=1;rounded=1;" parent="1" vertex="1">
          <mxGeometry x="320.5" y="172" width="165" height="40" as="geometry" />
        </mxCell>
        <mxCell id="slKX_kOUd4sJ9-ozoMOi-8" value="" style="edgeStyle=orthogonalEdgeStyle;rounded=0;orthogonalLoop=1;jettySize=auto;html=1;" parent="1" source="slKX_kOUd4sJ9-ozoMOi-5" target="slKX_kOUd4sJ9-ozoMOi-7" edge="1">
          <mxGeometry relative="1" as="geometry" />
        </mxCell>
        <mxCell id="slKX_kOUd4sJ9-ozoMOi-5" value="&lt;font style=&quot;font-size: 10px;&quot;&gt;exibir na tela do usuário &quot;Olá, &quot;+nome+&quot;!&quot;&lt;/font&gt;" style="whiteSpace=wrap;html=1;shadow=1;rounded=1;" parent="1" vertex="1">
          <mxGeometry x="300" y="247" width="205" height="33" as="geometry" />
        </mxCell>
        <mxCell id="slKX_kOUd4sJ9-ozoMOi-7" value="&lt;font style=&quot;font-size: 10px;&quot;&gt;Fim.&lt;/font&gt;" style="ellipse;whiteSpace=wrap;html=1;shadow=1;rounded=1;" parent="1" vertex="1">
          <mxGeometry x="355.5" y="320" width="95" height="43.5" as="geometry" />
        </mxCell>
      </root>
    </mxGraphModel>
  </diagram>
  <diagram id="tM_Lv1VrHq03UVvKTOWW" name="exercicio5">
    <mxGraphModel dx="1050" dy="565" grid="1" gridSize="10" guides="1" tooltips="1" connect="1" arrows="1" fold="1" page="1" pageScale="1" pageWidth="827" pageHeight="1169" math="0" shadow="0">
      <root>
        <mxCell id="0" />
        <mxCell id="1" parent="0" />
        <mxCell id="NF56amPE0Q15x_hilyyS-5" value="" style="edgeStyle=orthogonalEdgeStyle;rounded=0;orthogonalLoop=1;jettySize=auto;html=1;" parent="1" source="NF56amPE0Q15x_hilyyS-3" target="NF56amPE0Q15x_hilyyS-4" edge="1">
          <mxGeometry relative="1" as="geometry" />
        </mxCell>
        <mxCell id="NF56amPE0Q15x_hilyyS-3" value="&lt;font style=&quot;font-size: 10px;&quot;&gt;Inicio&lt;/font&gt;" style="ellipse;whiteSpace=wrap;html=1;shadow=1;" parent="1" vertex="1">
          <mxGeometry x="340" y="30" width="80" height="40" as="geometry" />
        </mxCell>
        <mxCell id="NF56amPE0Q15x_hilyyS-9" value="" style="edgeStyle=orthogonalEdgeStyle;rounded=0;orthogonalLoop=1;jettySize=auto;html=1;" parent="1" source="NF56amPE0Q15x_hilyyS-4" target="NF56amPE0Q15x_hilyyS-8" edge="1">
          <mxGeometry relative="1" as="geometry" />
        </mxCell>
        <mxCell id="NF56amPE0Q15x_hilyyS-4" value="&lt;font style=&quot;font-size: 10px;&quot;&gt;Digitar um número positivo (n)&lt;/font&gt;" style="whiteSpace=wrap;html=1;shadow=1;rounded=1;" parent="1" vertex="1">
          <mxGeometry x="320" y="100" width="120" height="30" as="geometry" />
        </mxCell>
        <mxCell id="MGIOEsB2hbpWHHCdORAE-2" value="" style="edgeStyle=orthogonalEdgeStyle;rounded=0;orthogonalLoop=1;jettySize=auto;html=1;" parent="1" source="NF56amPE0Q15x_hilyyS-8" target="MGIOEsB2hbpWHHCdORAE-1" edge="1">
          <mxGeometry relative="1" as="geometry" />
        </mxCell>
        <mxCell id="MGIOEsB2hbpWHHCdORAE-5" value="" style="edgeStyle=orthogonalEdgeStyle;rounded=0;orthogonalLoop=1;jettySize=auto;html=1;" parent="1" source="NF56amPE0Q15x_hilyyS-8" target="MGIOEsB2hbpWHHCdORAE-4" edge="1">
          <mxGeometry relative="1" as="geometry" />
        </mxCell>
        <mxCell id="NF56amPE0Q15x_hilyyS-8" value="&lt;font style=&quot;font-size: 10px;&quot;&gt;esse número (n) é divisíve&lt;/font&gt;&lt;span style=&quot;font-size: 10px; background-color: transparent; color: light-dark(rgb(0, 0, 0), rgb(255, 255, 255));&quot;&gt;l&lt;/span&gt;&lt;div&gt;&lt;span style=&quot;font-size: 10px; background-color: transparent; color: light-dark(rgb(0, 0, 0), rgb(255, 255, 255));&quot;&gt;&amp;nbsp;por 2?&amp;nbsp;&lt;/span&gt;&lt;/div&gt;" style="rhombus;whiteSpace=wrap;html=1;shadow=1;rounded=1;" parent="1" vertex="1">
          <mxGeometry x="301.25" y="160" width="157.5" height="80" as="geometry" />
        </mxCell>
        <mxCell id="MGIOEsB2hbpWHHCdORAE-10" style="edgeStyle=orthogonalEdgeStyle;rounded=0;orthogonalLoop=1;jettySize=auto;html=1;entryX=1;entryY=0.5;entryDx=0;entryDy=0;" parent="1" source="MGIOEsB2hbpWHHCdORAE-1" target="MGIOEsB2hbpWHHCdORAE-7" edge="1">
          <mxGeometry relative="1" as="geometry">
            <Array as="points">
              <mxPoint x="585" y="305" />
            </Array>
          </mxGeometry>
        </mxCell>
        <mxCell id="MGIOEsB2hbpWHHCdORAE-1" value="&lt;font style=&quot;font-size: 10px;&quot;&gt;exibir para o usuário que o (n) é &quot;Impar&quot;&lt;/font&gt;" style="whiteSpace=wrap;html=1;shadow=1;rounded=1;" parent="1" vertex="1">
          <mxGeometry x="520" y="180" width="130" height="40" as="geometry" />
        </mxCell>
        <mxCell id="MGIOEsB2hbpWHHCdORAE-3" value="&lt;font style=&quot;font-size: 10px;&quot;&gt;não&lt;/font&gt;" style="text;html=1;align=center;verticalAlign=middle;whiteSpace=wrap;rounded=0;" parent="1" vertex="1">
          <mxGeometry x="430" y="172" width="60" height="30" as="geometry" />
        </mxCell>
        <mxCell id="MGIOEsB2hbpWHHCdORAE-8" value="" style="edgeStyle=orthogonalEdgeStyle;rounded=0;orthogonalLoop=1;jettySize=auto;html=1;" parent="1" source="MGIOEsB2hbpWHHCdORAE-4" target="MGIOEsB2hbpWHHCdORAE-7" edge="1">
          <mxGeometry relative="1" as="geometry" />
        </mxCell>
        <mxCell id="MGIOEsB2hbpWHHCdORAE-4" value="&lt;font style=&quot;font-size: 10px;&quot;&gt;exibir para o usuário que o (n) é &quot;Par&quot;&lt;/font&gt;" style="whiteSpace=wrap;html=1;shadow=1;rounded=1;" parent="1" vertex="1">
          <mxGeometry x="70" y="185" width="132.5" height="30" as="geometry" />
        </mxCell>
        <mxCell id="MGIOEsB2hbpWHHCdORAE-6" value="&lt;span style=&quot;font-size: 10px;&quot;&gt;sim&lt;/span&gt;" style="text;html=1;align=center;verticalAlign=middle;whiteSpace=wrap;rounded=0;" parent="1" vertex="1">
          <mxGeometry x="260" y="172" width="60" height="30" as="geometry" />
        </mxCell>
        <mxCell id="MGIOEsB2hbpWHHCdORAE-7" value="&lt;font style=&quot;font-size: 10px;&quot;&gt;Fim.&lt;/font&gt;" style="ellipse;whiteSpace=wrap;html=1;shadow=1;rounded=1;" parent="1" vertex="1">
          <mxGeometry x="94.37" y="280" width="83.75" height="50" as="geometry" />
        </mxCell>
      </root>
    </mxGraphModel>
  </diagram>
  <diagram id="7Zbo_XMtPbiPBgg7XHNk" name="exercicio6">
    <mxGraphModel dx="1050" dy="565" grid="1" gridSize="10" guides="1" tooltips="1" connect="1" arrows="1" fold="1" page="1" pageScale="1" pageWidth="827" pageHeight="1169" math="0" shadow="0">
      <root>
        <mxCell id="0" />
        <mxCell id="1" parent="0" />
        <mxCell id="sJ5zQ73srE5MrNfrJO1v-3" value="" style="edgeStyle=orthogonalEdgeStyle;rounded=0;orthogonalLoop=1;jettySize=auto;html=1;" parent="1" source="sJ5zQ73srE5MrNfrJO1v-1" target="sJ5zQ73srE5MrNfrJO1v-2" edge="1">
          <mxGeometry relative="1" as="geometry" />
        </mxCell>
        <mxCell id="sJ5zQ73srE5MrNfrJO1v-1" value="&lt;font style=&quot;font-size: 10px;&quot;&gt;Inicio&lt;/font&gt;" style="ellipse;whiteSpace=wrap;html=1;shadow=1;" parent="1" vertex="1">
          <mxGeometry x="325" y="30" width="100" height="50" as="geometry" />
        </mxCell>
        <mxCell id="sJ5zQ73srE5MrNfrJO1v-5" value="" style="edgeStyle=orthogonalEdgeStyle;rounded=0;orthogonalLoop=1;jettySize=auto;html=1;" parent="1" source="sJ5zQ73srE5MrNfrJO1v-2" target="sJ5zQ73srE5MrNfrJO1v-4" edge="1">
          <mxGeometry relative="1" as="geometry" />
        </mxCell>
        <mxCell id="sJ5zQ73srE5MrNfrJO1v-2" value="&lt;font style=&quot;font-size: 10px;&quot;&gt;Digitar um número positivo (n1)&lt;/font&gt;" style="whiteSpace=wrap;html=1;shadow=1;rounded=1;" parent="1" vertex="1">
          <mxGeometry x="315" y="110" width="120" height="40" as="geometry" />
        </mxCell>
        <mxCell id="sJ5zQ73srE5MrNfrJO1v-7" value="" style="edgeStyle=orthogonalEdgeStyle;rounded=0;orthogonalLoop=1;jettySize=auto;html=1;" parent="1" source="sJ5zQ73srE5MrNfrJO1v-4" target="sJ5zQ73srE5MrNfrJO1v-6" edge="1">
          <mxGeometry relative="1" as="geometry" />
        </mxCell>
        <mxCell id="sJ5zQ73srE5MrNfrJO1v-4" value="&lt;font style=&quot;font-size: 10px;&quot;&gt;Digitar outro número positivo (n2)&lt;/font&gt;" style="whiteSpace=wrap;html=1;shadow=1;rounded=1;" parent="1" vertex="1">
          <mxGeometry x="315" y="180" width="120" height="40" as="geometry" />
        </mxCell>
        <mxCell id="sJ5zQ73srE5MrNfrJO1v-9" value="" style="edgeStyle=orthogonalEdgeStyle;rounded=0;orthogonalLoop=1;jettySize=auto;html=1;" parent="1" source="sJ5zQ73srE5MrNfrJO1v-6" target="sJ5zQ73srE5MrNfrJO1v-8" edge="1">
          <mxGeometry relative="1" as="geometry" />
        </mxCell>
        <mxCell id="sJ5zQ73srE5MrNfrJO1v-6" value="&lt;font style=&quot;font-size: 10px;&quot;&gt;Fazer uma conta de adição com o primeiro número e o segundo número&lt;/font&gt;&lt;div&gt;&lt;font style=&quot;font-size: 10px;&quot;&gt;total = n1 + n2&lt;/font&gt;&lt;/div&gt;" style="whiteSpace=wrap;html=1;shadow=1;rounded=1;" parent="1" vertex="1">
          <mxGeometry x="280" y="250" width="190" height="50" as="geometry" />
        </mxCell>
        <mxCell id="sJ5zQ73srE5MrNfrJO1v-11" value="" style="edgeStyle=orthogonalEdgeStyle;rounded=0;orthogonalLoop=1;jettySize=auto;html=1;" parent="1" source="sJ5zQ73srE5MrNfrJO1v-8" target="sJ5zQ73srE5MrNfrJO1v-10" edge="1">
          <mxGeometry relative="1" as="geometry" />
        </mxCell>
        <mxCell id="sJ5zQ73srE5MrNfrJO1v-8" value="&lt;font style=&quot;font-size: 10px;&quot;&gt;Exibir na tela o total da conta (total)&lt;/font&gt;" style="whiteSpace=wrap;html=1;shadow=1;rounded=1;" parent="1" vertex="1">
          <mxGeometry x="290" y="330" width="170" height="40" as="geometry" />
        </mxCell>
        <mxCell id="sJ5zQ73srE5MrNfrJO1v-10" value="&lt;font style=&quot;font-size: 10px;&quot;&gt;Fim.&lt;/font&gt;" style="ellipse;whiteSpace=wrap;html=1;shadow=1;rounded=1;" parent="1" vertex="1">
          <mxGeometry x="325" y="410" width="100" height="40" as="geometry" />
        </mxCell>
      </root>
    </mxGraphModel>
  </diagram>
  <diagram id="-rlAV4X1-byt_owUvuAb" name="exercicio7">
    <mxGraphModel dx="1050" dy="565" grid="1" gridSize="10" guides="1" tooltips="1" connect="1" arrows="1" fold="1" page="1" pageScale="1" pageWidth="827" pageHeight="1169" math="0" shadow="0">
      <root>
        <mxCell id="0" />
        <mxCell id="1" parent="0" />
        <mxCell id="5l-qD3FP4TeIza_9tS2u-2" value="" style="edgeStyle=orthogonalEdgeStyle;rounded=0;orthogonalLoop=1;jettySize=auto;html=1;" parent="1" source="AxbKChM9ECg6mIZ_u1LF-1" target="5l-qD3FP4TeIza_9tS2u-1" edge="1">
          <mxGeometry relative="1" as="geometry" />
        </mxCell>
        <mxCell id="AxbKChM9ECg6mIZ_u1LF-1" value="&lt;font style=&quot;font-size: 10px;&quot;&gt;Inicio&lt;/font&gt;" style="ellipse;whiteSpace=wrap;html=1;shadow=1;" parent="1" vertex="1">
          <mxGeometry x="350" y="30" width="90" height="40" as="geometry" />
        </mxCell>
        <mxCell id="5l-qD3FP4TeIza_9tS2u-4" value="" style="edgeStyle=orthogonalEdgeStyle;rounded=0;orthogonalLoop=1;jettySize=auto;html=1;" parent="1" source="5l-qD3FP4TeIza_9tS2u-1" target="5l-qD3FP4TeIza_9tS2u-3" edge="1">
          <mxGeometry relative="1" as="geometry" />
        </mxCell>
        <mxCell id="5l-qD3FP4TeIza_9tS2u-1" value="&lt;font style=&quot;font-size: 10px;&quot;&gt;Informar um número positivo (n1)&lt;/font&gt;" style="whiteSpace=wrap;html=1;shadow=1;rounded=1;" parent="1" vertex="1">
          <mxGeometry x="322.5" y="110" width="145" height="30" as="geometry" />
        </mxCell>
        <mxCell id="5l-qD3FP4TeIza_9tS2u-6" value="" style="edgeStyle=orthogonalEdgeStyle;rounded=0;orthogonalLoop=1;jettySize=auto;html=1;" parent="1" source="5l-qD3FP4TeIza_9tS2u-3" target="5l-qD3FP4TeIza_9tS2u-5" edge="1">
          <mxGeometry relative="1" as="geometry" />
        </mxCell>
        <mxCell id="5l-qD3FP4TeIza_9tS2u-3" value="&lt;font style=&quot;font-size: 10px;&quot;&gt;Informar outro número positivo (n2)&lt;/font&gt;" style="whiteSpace=wrap;html=1;shadow=1;rounded=1;" parent="1" vertex="1">
          <mxGeometry x="322.5" y="180" width="145" height="30" as="geometry" />
        </mxCell>
        <mxCell id="8LUPZdqmoIhHie49SRu_-2" value="" style="edgeStyle=orthogonalEdgeStyle;rounded=0;orthogonalLoop=1;jettySize=auto;html=1;" parent="1" source="5l-qD3FP4TeIza_9tS2u-5" target="8LUPZdqmoIhHie49SRu_-1" edge="1">
          <mxGeometry relative="1" as="geometry" />
        </mxCell>
        <mxCell id="8LUPZdqmoIhHie49SRu_-5" value="" style="edgeStyle=orthogonalEdgeStyle;rounded=0;orthogonalLoop=1;jettySize=auto;html=1;" parent="1" source="5l-qD3FP4TeIza_9tS2u-5" target="8LUPZdqmoIhHie49SRu_-4" edge="1">
          <mxGeometry relative="1" as="geometry" />
        </mxCell>
        <mxCell id="5l-qD3FP4TeIza_9tS2u-5" value="&lt;font style=&quot;font-size: 10px;&quot;&gt;&amp;nbsp; &amp;nbsp;O primeiro número é maior que o segundo (n1 &amp;gt; n2 ) ?&lt;/font&gt;" style="rhombus;whiteSpace=wrap;html=1;shadow=1;rounded=1;" parent="1" vertex="1">
          <mxGeometry x="311.25" y="250" width="167.5" height="90" as="geometry" />
        </mxCell>
        <mxCell id="8LUPZdqmoIhHie49SRu_-13" style="edgeStyle=orthogonalEdgeStyle;rounded=0;orthogonalLoop=1;jettySize=auto;html=1;entryX=0;entryY=0.5;entryDx=0;entryDy=0;" parent="1" source="8LUPZdqmoIhHie49SRu_-1" target="8LUPZdqmoIhHie49SRu_-11" edge="1">
          <mxGeometry relative="1" as="geometry">
            <Array as="points">
              <mxPoint x="150" y="430" />
            </Array>
          </mxGeometry>
        </mxCell>
        <mxCell id="8LUPZdqmoIhHie49SRu_-1" value="&lt;font style=&quot;font-size: 10px;&quot;&gt;Exibir na tela o primeiro número (n1)&lt;/font&gt;" style="whiteSpace=wrap;html=1;shadow=1;rounded=1;" parent="1" vertex="1">
          <mxGeometry x="90" y="272.5" width="120" height="45" as="geometry" />
        </mxCell>
        <mxCell id="8LUPZdqmoIhHie49SRu_-3" value="&lt;font style=&quot;font-size: 10px;&quot;&gt;sim&lt;/font&gt;" style="text;html=1;align=center;verticalAlign=middle;whiteSpace=wrap;rounded=0;" parent="1" vertex="1">
          <mxGeometry x="262.5" y="265" width="60" height="30" as="geometry" />
        </mxCell>
        <mxCell id="8LUPZdqmoIhHie49SRu_-14" style="edgeStyle=orthogonalEdgeStyle;rounded=0;orthogonalLoop=1;jettySize=auto;html=1;entryX=1;entryY=0.5;entryDx=0;entryDy=0;" parent="1" source="8LUPZdqmoIhHie49SRu_-4" target="8LUPZdqmoIhHie49SRu_-11" edge="1">
          <mxGeometry relative="1" as="geometry">
            <Array as="points">
              <mxPoint x="642" y="430" />
            </Array>
          </mxGeometry>
        </mxCell>
        <mxCell id="8LUPZdqmoIhHie49SRu_-4" value="&lt;font style=&quot;font-size: 10px;&quot;&gt;Exibir na tela o segundo número (n2)&lt;/font&gt;" style="whiteSpace=wrap;html=1;shadow=1;rounded=1;" parent="1" vertex="1">
          <mxGeometry x="582.5" y="277.5" width="120" height="35" as="geometry" />
        </mxCell>
        <mxCell id="8LUPZdqmoIhHie49SRu_-6" value="&lt;span style=&quot;font-size: 10px;&quot;&gt;não&lt;/span&gt;" style="text;html=1;align=center;verticalAlign=middle;whiteSpace=wrap;rounded=0;" parent="1" vertex="1">
          <mxGeometry x="467.5" y="265" width="60" height="30" as="geometry" />
        </mxCell>
        <mxCell id="8LUPZdqmoIhHie49SRu_-11" value="&lt;font style=&quot;font-size: 10px;&quot;&gt;Fim&lt;/font&gt;." style="ellipse;whiteSpace=wrap;html=1;" parent="1" vertex="1">
          <mxGeometry x="365" y="410" width="75" height="40" as="geometry" />
        </mxCell>
      </root>
    </mxGraphModel>
  </diagram>
  <diagram id="2F-Gn85gOMuJ1s8LgkYn" name="exercicio8">
    <mxGraphModel dx="1050" dy="565" grid="1" gridSize="10" guides="1" tooltips="1" connect="1" arrows="1" fold="1" page="1" pageScale="1" pageWidth="827" pageHeight="1169" math="0" shadow="0">
      <root>
        <mxCell id="0" />
        <mxCell id="1" parent="0" />
        <mxCell id="AScceyrXagyMJ2P2ygGf-2" value="" style="edgeStyle=orthogonalEdgeStyle;rounded=0;orthogonalLoop=1;jettySize=auto;html=1;" edge="1" parent="1" source="8LUAqZ7bkNt8URHWpKfY-1" target="8LUAqZ7bkNt8URHWpKfY-4">
          <mxGeometry relative="1" as="geometry" />
        </mxCell>
        <mxCell id="8LUAqZ7bkNt8URHWpKfY-1" value="&lt;font style=&quot;font-size: 10px;&quot;&gt;Inicio&lt;/font&gt;" style="ellipse;whiteSpace=wrap;html=1;shadow=1;" parent="1" vertex="1">
          <mxGeometry x="350" y="20" width="90" height="40" as="geometry" />
        </mxCell>
        <mxCell id="AScceyrXagyMJ2P2ygGf-3" value="" style="edgeStyle=orthogonalEdgeStyle;rounded=0;orthogonalLoop=1;jettySize=auto;html=1;" edge="1" parent="1" source="8LUAqZ7bkNt8URHWpKfY-4" target="QAA4aPnuE9HD7J4GxEXE-1">
          <mxGeometry relative="1" as="geometry" />
        </mxCell>
        <mxCell id="8LUAqZ7bkNt8URHWpKfY-4" value="&lt;font style=&quot;font-size: 10px;&quot;&gt;Receber a primeira nota (n1)&lt;/font&gt;" style="whiteSpace=wrap;html=1;glass=0;rounded=1;shadow=1;" parent="1" vertex="1">
          <mxGeometry x="327.5" y="90" width="135" height="30" as="geometry" />
        </mxCell>
        <mxCell id="AScceyrXagyMJ2P2ygGf-4" value="" style="edgeStyle=orthogonalEdgeStyle;rounded=0;orthogonalLoop=1;jettySize=auto;html=1;" edge="1" parent="1" source="QAA4aPnuE9HD7J4GxEXE-1" target="QAA4aPnuE9HD7J4GxEXE-2">
          <mxGeometry relative="1" as="geometry" />
        </mxCell>
        <mxCell id="QAA4aPnuE9HD7J4GxEXE-1" value="&lt;font style=&quot;font-size: 10px;&quot;&gt;Receber a segunda nota (n2)&lt;/font&gt;" style="whiteSpace=wrap;html=1;glass=0;rounded=1;shadow=1;" parent="1" vertex="1">
          <mxGeometry x="327.5" y="140" width="135" height="30" as="geometry" />
        </mxCell>
        <mxCell id="AScceyrXagyMJ2P2ygGf-5" value="" style="edgeStyle=orthogonalEdgeStyle;rounded=0;orthogonalLoop=1;jettySize=auto;html=1;" edge="1" parent="1" source="QAA4aPnuE9HD7J4GxEXE-2" target="QAA4aPnuE9HD7J4GxEXE-5">
          <mxGeometry relative="1" as="geometry" />
        </mxCell>
        <mxCell id="QAA4aPnuE9HD7J4GxEXE-2" value="&lt;font style=&quot;font-size: 10px;&quot;&gt;Receber a terceira nota (n3)&lt;/font&gt;" style="whiteSpace=wrap;html=1;glass=0;rounded=1;shadow=1;" parent="1" vertex="1">
          <mxGeometry x="327.5" y="190" width="135" height="30" as="geometry" />
        </mxCell>
        <mxCell id="AScceyrXagyMJ2P2ygGf-6" value="" style="edgeStyle=orthogonalEdgeStyle;rounded=0;orthogonalLoop=1;jettySize=auto;html=1;" edge="1" parent="1" source="QAA4aPnuE9HD7J4GxEXE-5" target="QAA4aPnuE9HD7J4GxEXE-7">
          <mxGeometry relative="1" as="geometry" />
        </mxCell>
        <mxCell id="QAA4aPnuE9HD7J4GxEXE-5" value="&lt;font style=&quot;font-size: 10px;&quot;&gt;Calcular a media das notas&lt;/font&gt;&lt;div&gt;&lt;font style=&quot;font-size: 10px;&quot;&gt;média = (n1 + n2 + n3) / 3&amp;nbsp;&amp;nbsp;&lt;/font&gt;&lt;/div&gt;" style="whiteSpace=wrap;html=1;glass=0;rounded=1;shadow=1;" parent="1" vertex="1">
          <mxGeometry x="321.25" y="240" width="147.5" height="40" as="geometry" />
        </mxCell>
        <mxCell id="AScceyrXagyMJ2P2ygGf-7" value="" style="edgeStyle=orthogonalEdgeStyle;rounded=0;orthogonalLoop=1;jettySize=auto;html=1;" edge="1" parent="1" source="QAA4aPnuE9HD7J4GxEXE-7" target="QAA4aPnuE9HD7J4GxEXE-9">
          <mxGeometry relative="1" as="geometry" />
        </mxCell>
        <mxCell id="QAA4aPnuE9HD7J4GxEXE-7" value="&lt;font style=&quot;font-size: 10px;&quot;&gt;Exibir na tela a Média das notas&amp;nbsp;&lt;/font&gt;" style="whiteSpace=wrap;html=1;glass=0;rounded=1;shadow=1;" parent="1" vertex="1">
          <mxGeometry x="323.75" y="305" width="145" height="40" as="geometry" />
        </mxCell>
        <mxCell id="QAA4aPnuE9HD7J4GxEXE-9" value="&lt;font style=&quot;font-size: 10px;&quot;&gt;Fim.&lt;/font&gt;" style="ellipse;whiteSpace=wrap;html=1;glass=0;rounded=1;shadow=1;" parent="1" vertex="1">
          <mxGeometry x="350" y="368" width="92.12" height="40" as="geometry" />
        </mxCell>
      </root>
    </mxGraphModel>
  </diagram>
  <diagram id="Cz6yoYjdGfXCgQTSFLd_" name="exercicio9">
    <mxGraphModel dx="1050" dy="565" grid="1" gridSize="10" guides="1" tooltips="1" connect="1" arrows="1" fold="1" page="1" pageScale="1" pageWidth="827" pageHeight="1169" math="0" shadow="0">
      <root>
        <mxCell id="0" />
        <mxCell id="1" parent="0" />
        <mxCell id="nSU9_XFUJnH7bEJb-hMZ-3" value="" style="edgeStyle=orthogonalEdgeStyle;rounded=0;orthogonalLoop=1;jettySize=auto;html=1;" parent="1" source="nSU9_XFUJnH7bEJb-hMZ-1" target="nSU9_XFUJnH7bEJb-hMZ-2" edge="1">
          <mxGeometry relative="1" as="geometry" />
        </mxCell>
        <mxCell id="nSU9_XFUJnH7bEJb-hMZ-1" value="&lt;font style=&quot;font-size: 10px;&quot;&gt;Inicio&lt;/font&gt;" style="ellipse;whiteSpace=wrap;html=1;shadow=1;" parent="1" vertex="1">
          <mxGeometry x="270" y="30" width="80" height="40" as="geometry" />
        </mxCell>
        <mxCell id="nSU9_XFUJnH7bEJb-hMZ-5" value="" style="edgeStyle=orthogonalEdgeStyle;rounded=0;orthogonalLoop=1;jettySize=auto;html=1;" parent="1" source="nSU9_XFUJnH7bEJb-hMZ-2" target="nSU9_XFUJnH7bEJb-hMZ-4" edge="1">
          <mxGeometry relative="1" as="geometry" />
        </mxCell>
        <mxCell id="nSU9_XFUJnH7bEJb-hMZ-2" value="&lt;font style=&quot;font-size: 10px;&quot;&gt;Digitar a idade&lt;/font&gt;" style="whiteSpace=wrap;html=1;rounded=1;shadow=1;" parent="1" vertex="1">
          <mxGeometry x="265" y="100" width="90" height="30" as="geometry" />
        </mxCell>
        <mxCell id="nSU9_XFUJnH7bEJb-hMZ-7" value="" style="edgeStyle=orthogonalEdgeStyle;rounded=0;orthogonalLoop=1;jettySize=auto;html=1;" parent="1" source="nSU9_XFUJnH7bEJb-hMZ-4" target="nSU9_XFUJnH7bEJb-hMZ-6" edge="1">
          <mxGeometry relative="1" as="geometry" />
        </mxCell>
        <mxCell id="nSU9_XFUJnH7bEJb-hMZ-11" value="" style="edgeStyle=orthogonalEdgeStyle;rounded=0;orthogonalLoop=1;jettySize=auto;html=1;" parent="1" source="nSU9_XFUJnH7bEJb-hMZ-4" target="nSU9_XFUJnH7bEJb-hMZ-10" edge="1">
          <mxGeometry relative="1" as="geometry" />
        </mxCell>
        <mxCell id="nSU9_XFUJnH7bEJb-hMZ-4" value="&lt;font style=&quot;font-size: 10px;&quot;&gt;A idade é &amp;lt;=12 ?&lt;/font&gt;" style="rhombus;whiteSpace=wrap;html=1;rounded=1;shadow=1;" parent="1" vertex="1">
          <mxGeometry x="255" y="160" width="110" height="60" as="geometry" />
        </mxCell>
        <mxCell id="pv_dwK4wTTxHcXJyS-l0-11" style="edgeStyle=orthogonalEdgeStyle;rounded=0;orthogonalLoop=1;jettySize=auto;html=1;" edge="1" parent="1" source="nSU9_XFUJnH7bEJb-hMZ-6" target="pv_dwK4wTTxHcXJyS-l0-10">
          <mxGeometry relative="1" as="geometry" />
        </mxCell>
        <mxCell id="nSU9_XFUJnH7bEJb-hMZ-6" value="&lt;font style=&quot;font-size: 10px;&quot;&gt;Exibir na tela &quot;Classificação: Criança&quot;&lt;/font&gt;" style="whiteSpace=wrap;html=1;rounded=1;shadow=1;" parent="1" vertex="1">
          <mxGeometry x="60" y="175" width="120" height="30" as="geometry" />
        </mxCell>
        <mxCell id="nSU9_XFUJnH7bEJb-hMZ-8" value="&lt;font style=&quot;font-size: 10px;&quot;&gt;sim&lt;/font&gt;" style="text;html=1;align=center;verticalAlign=middle;whiteSpace=wrap;rounded=0;" parent="1" vertex="1">
          <mxGeometry x="217" y="164" width="60" height="30" as="geometry" />
        </mxCell>
        <mxCell id="nSU9_XFUJnH7bEJb-hMZ-9" value="&lt;span style=&quot;font-size: 10px;&quot;&gt;não&lt;/span&gt;" style="text;html=1;align=center;verticalAlign=middle;whiteSpace=wrap;rounded=0;" parent="1" vertex="1">
          <mxGeometry x="340" y="163" width="60" height="30" as="geometry" />
        </mxCell>
        <mxCell id="EOvkw8BuSWEWoDci34pi-2" value="" style="edgeStyle=orthogonalEdgeStyle;rounded=0;orthogonalLoop=1;jettySize=auto;html=1;" edge="1" parent="1" source="nSU9_XFUJnH7bEJb-hMZ-10" target="EOvkw8BuSWEWoDci34pi-1">
          <mxGeometry relative="1" as="geometry" />
        </mxCell>
        <mxCell id="pv_dwK4wTTxHcXJyS-l0-2" value="" style="edgeStyle=orthogonalEdgeStyle;rounded=0;orthogonalLoop=1;jettySize=auto;html=1;exitX=0.955;exitY=0.502;exitDx=0;exitDy=0;exitPerimeter=0;" edge="1" parent="1" source="nSU9_XFUJnH7bEJb-hMZ-10" target="pv_dwK4wTTxHcXJyS-l0-1">
          <mxGeometry relative="1" as="geometry">
            <Array as="points">
              <mxPoint x="545" y="265" />
            </Array>
          </mxGeometry>
        </mxCell>
        <mxCell id="nSU9_XFUJnH7bEJb-hMZ-10" value="&lt;font style=&quot;font-size: 10px;&quot;&gt;idade &amp;gt;=13 e idade &amp;lt;=17 ?&lt;/font&gt;" style="rhombus;whiteSpace=wrap;html=1;rounded=1;shadow=1;" parent="1" vertex="1">
          <mxGeometry x="380" y="230" width="140" height="70" as="geometry" />
        </mxCell>
        <mxCell id="pv_dwK4wTTxHcXJyS-l0-12" style="edgeStyle=orthogonalEdgeStyle;rounded=0;orthogonalLoop=1;jettySize=auto;html=1;entryX=0.5;entryY=0;entryDx=0;entryDy=0;" edge="1" parent="1" source="EOvkw8BuSWEWoDci34pi-1" target="pv_dwK4wTTxHcXJyS-l0-10">
          <mxGeometry relative="1" as="geometry" />
        </mxCell>
        <mxCell id="EOvkw8BuSWEWoDci34pi-1" value="&lt;font style=&quot;font-size: 10px;&quot;&gt;Exibir na tela &quot;Classificação: Adolescente&quot;&lt;/font&gt;" style="rounded=1;whiteSpace=wrap;html=1;shadow=1;" vertex="1" parent="1">
          <mxGeometry x="180" y="249.5" width="134.5" height="32.5" as="geometry" />
        </mxCell>
        <mxCell id="EOvkw8BuSWEWoDci34pi-3" value="&lt;font style=&quot;font-size: 10px;&quot;&gt;sim&lt;/font&gt;" style="text;html=1;align=center;verticalAlign=middle;whiteSpace=wrap;rounded=0;" vertex="1" parent="1">
          <mxGeometry x="330" y="239" width="60" height="30" as="geometry" />
        </mxCell>
        <mxCell id="pv_dwK4wTTxHcXJyS-l0-5" value="" style="edgeStyle=orthogonalEdgeStyle;rounded=0;orthogonalLoop=1;jettySize=auto;html=1;" edge="1" parent="1" source="pv_dwK4wTTxHcXJyS-l0-1" target="pv_dwK4wTTxHcXJyS-l0-4">
          <mxGeometry relative="1" as="geometry" />
        </mxCell>
        <mxCell id="pv_dwK4wTTxHcXJyS-l0-8" value="" style="edgeStyle=orthogonalEdgeStyle;rounded=0;orthogonalLoop=1;jettySize=auto;html=1;" edge="1" parent="1" source="pv_dwK4wTTxHcXJyS-l0-1" target="pv_dwK4wTTxHcXJyS-l0-7">
          <mxGeometry relative="1" as="geometry" />
        </mxCell>
        <mxCell id="pv_dwK4wTTxHcXJyS-l0-1" value="&lt;font style=&quot;font-size: 10px;&quot;&gt;idade &amp;gt;=18 e idade &amp;lt;=59 ?&lt;/font&gt;" style="rhombus;whiteSpace=wrap;html=1;rounded=1;shadow=1;" vertex="1" parent="1">
          <mxGeometry x="470" y="337" width="150" height="70" as="geometry" />
        </mxCell>
        <mxCell id="pv_dwK4wTTxHcXJyS-l0-3" value="&lt;span style=&quot;font-size: 10px;&quot;&gt;não&lt;/span&gt;" style="text;html=1;align=center;verticalAlign=middle;whiteSpace=wrap;rounded=0;" vertex="1" parent="1">
          <mxGeometry x="500" y="239" width="60" height="30" as="geometry" />
        </mxCell>
        <mxCell id="pv_dwK4wTTxHcXJyS-l0-13" style="edgeStyle=orthogonalEdgeStyle;rounded=0;orthogonalLoop=1;jettySize=auto;html=1;entryX=0.5;entryY=0;entryDx=0;entryDy=0;" edge="1" parent="1" source="pv_dwK4wTTxHcXJyS-l0-4" target="pv_dwK4wTTxHcXJyS-l0-10">
          <mxGeometry relative="1" as="geometry" />
        </mxCell>
        <mxCell id="pv_dwK4wTTxHcXJyS-l0-4" value="&lt;font style=&quot;font-size: 10px;&quot;&gt;Exibir na tela &quot;Classificação: Adulto&quot;&lt;/font&gt;" style="whiteSpace=wrap;html=1;rounded=1;shadow=1;" vertex="1" parent="1">
          <mxGeometry x="250" y="356.5" width="125" height="30.5" as="geometry" />
        </mxCell>
        <mxCell id="pv_dwK4wTTxHcXJyS-l0-6" value="&lt;font style=&quot;font-size: 10px;&quot;&gt;sim&lt;/font&gt;" style="text;html=1;align=center;verticalAlign=middle;whiteSpace=wrap;rounded=0;" vertex="1" parent="1">
          <mxGeometry x="427" y="347" width="60" height="30" as="geometry" />
        </mxCell>
        <mxCell id="pv_dwK4wTTxHcXJyS-l0-14" style="edgeStyle=orthogonalEdgeStyle;rounded=0;orthogonalLoop=1;jettySize=auto;html=1;" edge="1" parent="1" source="pv_dwK4wTTxHcXJyS-l0-7" target="pv_dwK4wTTxHcXJyS-l0-10">
          <mxGeometry relative="1" as="geometry">
            <Array as="points">
              <mxPoint x="240" y="464" />
              <mxPoint x="240" y="464" />
            </Array>
          </mxGeometry>
        </mxCell>
        <mxCell id="pv_dwK4wTTxHcXJyS-l0-7" value="&lt;font style=&quot;font-size: 10px;&quot;&gt;Exibir na tela &quot;Classificação: Idoso&quot;&lt;/font&gt;" style="whiteSpace=wrap;html=1;rounded=1;shadow=1;" vertex="1" parent="1">
          <mxGeometry x="483.5" y="450" width="122.5" height="30" as="geometry" />
        </mxCell>
        <mxCell id="pv_dwK4wTTxHcXJyS-l0-9" value="&lt;span style=&quot;font-size: 10px;&quot;&gt;não&lt;/span&gt;" style="text;html=1;align=center;verticalAlign=middle;whiteSpace=wrap;rounded=0;" vertex="1" parent="1">
          <mxGeometry x="530" y="400" width="60" height="30" as="geometry" />
        </mxCell>
        <mxCell id="pv_dwK4wTTxHcXJyS-l0-10" value="&lt;span style=&quot;font-size: 10px;&quot;&gt;Fim.&lt;/span&gt;" style="ellipse;whiteSpace=wrap;html=1;shadow=1;" vertex="1" parent="1">
          <mxGeometry x="80" y="444" width="80" height="40" as="geometry" />
        </mxCell>
      </root>
    </mxGraphModel>
  </diagram>
  <diagram id="37CHN6bCdtfYHFgCMLqC" name="exercicio10">
    <mxGraphModel dx="1050" dy="565" grid="1" gridSize="10" guides="1" tooltips="1" connect="1" arrows="1" fold="1" page="1" pageScale="1" pageWidth="827" pageHeight="1169" math="0" shadow="0">
      <root>
        <mxCell id="0" />
        <mxCell id="1" parent="0" />
        <mxCell id="VSrAW8JX8qYiLQioIGpB-2" value="" style="edgeStyle=orthogonalEdgeStyle;rounded=0;orthogonalLoop=1;jettySize=auto;html=1;" edge="1" parent="1" source="JrSZw89FKugJCuhpM2mp-1" target="VSrAW8JX8qYiLQioIGpB-1">
          <mxGeometry relative="1" as="geometry" />
        </mxCell>
        <mxCell id="JrSZw89FKugJCuhpM2mp-1" value="&lt;font style=&quot;font-size: 10px;&quot;&gt;Inicio&lt;/font&gt;" style="ellipse;whiteSpace=wrap;html=1;shadow=1;" vertex="1" parent="1">
          <mxGeometry x="372" y="30" width="80" height="40" as="geometry" />
        </mxCell>
        <mxCell id="VSrAW8JX8qYiLQioIGpB-4" value="" style="edgeStyle=orthogonalEdgeStyle;rounded=0;orthogonalLoop=1;jettySize=auto;html=1;" edge="1" parent="1" source="VSrAW8JX8qYiLQioIGpB-1" target="VSrAW8JX8qYiLQioIGpB-3">
          <mxGeometry relative="1" as="geometry" />
        </mxCell>
        <mxCell id="VSrAW8JX8qYiLQioIGpB-1" value="&lt;font style=&quot;font-size: 10px;&quot;&gt;Digitar um ano&amp;nbsp;&lt;/font&gt;" style="whiteSpace=wrap;html=1;shadow=1;rounded=1;" vertex="1" parent="1">
          <mxGeometry x="352" y="100" width="120" height="30" as="geometry" />
        </mxCell>
        <mxCell id="VSrAW8JX8qYiLQioIGpB-19" style="edgeStyle=orthogonalEdgeStyle;rounded=0;orthogonalLoop=1;jettySize=auto;html=1;entryX=0.5;entryY=0;entryDx=0;entryDy=0;" edge="1" parent="1" source="VSrAW8JX8qYiLQioIGpB-3" target="VSrAW8JX8qYiLQioIGpB-8">
          <mxGeometry relative="1" as="geometry" />
        </mxCell>
        <mxCell id="VSrAW8JX8qYiLQioIGpB-23" style="edgeStyle=orthogonalEdgeStyle;rounded=0;orthogonalLoop=1;jettySize=auto;html=1;" edge="1" parent="1" source="VSrAW8JX8qYiLQioIGpB-3" target="VSrAW8JX8qYiLQioIGpB-5">
          <mxGeometry relative="1" as="geometry" />
        </mxCell>
        <mxCell id="VSrAW8JX8qYiLQioIGpB-3" value="&lt;font style=&quot;font-size: 10px;&quot;&gt;O ano é divisível por 4&amp;nbsp;&lt;/font&gt;&lt;div&gt;&lt;font style=&quot;font-size: 10px;&quot;&gt;( ano % 4 == 0 ) ?&amp;nbsp;&lt;/font&gt;&lt;/div&gt;" style="rhombus;whiteSpace=wrap;html=1;shadow=1;rounded=1;" vertex="1" parent="1">
          <mxGeometry x="328.25" y="170" width="167.5" height="60" as="geometry" />
        </mxCell>
        <mxCell id="VSrAW8JX8qYiLQioIGpB-32" value="" style="edgeStyle=orthogonalEdgeStyle;rounded=0;orthogonalLoop=1;jettySize=auto;html=1;" edge="1" parent="1" source="VSrAW8JX8qYiLQioIGpB-5" target="VSrAW8JX8qYiLQioIGpB-30">
          <mxGeometry relative="1" as="geometry" />
        </mxCell>
        <mxCell id="VSrAW8JX8qYiLQioIGpB-5" value="&lt;font style=&quot;font-size: 10px;&quot;&gt;Exibir na tela &quot;Esse ano não é bissexto&quot;&lt;/font&gt;" style="whiteSpace=wrap;html=1;shadow=1;rounded=1;" vertex="1" parent="1">
          <mxGeometry x="632" y="275" width="142.5" height="40" as="geometry" />
        </mxCell>
        <mxCell id="VSrAW8JX8qYiLQioIGpB-7" value="&lt;font style=&quot;font-size: 10px;&quot;&gt;não&lt;/font&gt;" style="text;html=1;align=center;verticalAlign=middle;whiteSpace=wrap;rounded=0;" vertex="1" parent="1">
          <mxGeometry x="469" y="175" width="60" height="30" as="geometry" />
        </mxCell>
        <mxCell id="VSrAW8JX8qYiLQioIGpB-31" style="edgeStyle=orthogonalEdgeStyle;rounded=0;orthogonalLoop=1;jettySize=auto;html=1;entryX=0;entryY=0.5;entryDx=0;entryDy=0;" edge="1" parent="1" source="VSrAW8JX8qYiLQioIGpB-8" target="VSrAW8JX8qYiLQioIGpB-24">
          <mxGeometry relative="1" as="geometry">
            <Array as="points">
              <mxPoint x="160" y="420" />
            </Array>
          </mxGeometry>
        </mxCell>
        <mxCell id="VSrAW8JX8qYiLQioIGpB-8" value="&lt;font style=&quot;font-size: 10px;&quot;&gt;O ano é divisível por 100 também&amp;nbsp;&amp;nbsp;&lt;/font&gt;&lt;div&gt;&lt;font style=&quot;font-size: 10px;&quot;&gt;( ano % 100 == 0 ) ?&amp;nbsp;&lt;/font&gt;&lt;/div&gt;" style="rhombus;whiteSpace=wrap;html=1;shadow=1;rounded=1;" vertex="1" parent="1">
          <mxGeometry x="52" y="260" width="216.25" height="70" as="geometry" />
        </mxCell>
        <mxCell id="VSrAW8JX8qYiLQioIGpB-10" value="&lt;span style=&quot;font-size: 10px;&quot;&gt;sim&lt;/span&gt;" style="text;html=1;align=center;verticalAlign=middle;whiteSpace=wrap;rounded=0;" vertex="1" parent="1">
          <mxGeometry x="289" y="174" width="60" height="30" as="geometry" />
        </mxCell>
        <mxCell id="VSrAW8JX8qYiLQioIGpB-12" value="&lt;font style=&quot;font-size: 10px;&quot;&gt;não&lt;/font&gt;" style="text;html=1;align=center;verticalAlign=middle;whiteSpace=wrap;rounded=0;" vertex="1" parent="1">
          <mxGeometry x="112" y="326" width="60" height="30" as="geometry" />
        </mxCell>
        <mxCell id="VSrAW8JX8qYiLQioIGpB-25" style="edgeStyle=orthogonalEdgeStyle;rounded=0;orthogonalLoop=1;jettySize=auto;html=1;entryX=0;entryY=0.5;entryDx=0;entryDy=0;" edge="1" parent="1" source="VSrAW8JX8qYiLQioIGpB-15" target="VSrAW8JX8qYiLQioIGpB-5">
          <mxGeometry relative="1" as="geometry" />
        </mxCell>
        <mxCell id="VSrAW8JX8qYiLQioIGpB-27" style="edgeStyle=orthogonalEdgeStyle;rounded=0;orthogonalLoop=1;jettySize=auto;html=1;entryX=0.5;entryY=0;entryDx=0;entryDy=0;" edge="1" parent="1" source="VSrAW8JX8qYiLQioIGpB-15" target="VSrAW8JX8qYiLQioIGpB-24">
          <mxGeometry relative="1" as="geometry" />
        </mxCell>
        <mxCell id="VSrAW8JX8qYiLQioIGpB-15" value="&lt;font style=&quot;font-size: 10px;&quot;&gt;O ano é divisível por 400 também&amp;nbsp;&amp;nbsp;&lt;/font&gt;&lt;div&gt;&lt;font style=&quot;font-size: 10px;&quot;&gt;( ano % 400 == 0 ) ?&amp;nbsp;&lt;/font&gt;&lt;/div&gt;" style="rhombus;whiteSpace=wrap;html=1;shadow=1;rounded=1;" vertex="1" parent="1">
          <mxGeometry x="322" y="260" width="216.25" height="70" as="geometry" />
        </mxCell>
        <mxCell id="VSrAW8JX8qYiLQioIGpB-17" value="&lt;span style=&quot;font-size: 10px;&quot;&gt;sim&lt;/span&gt;" style="text;html=1;align=center;verticalAlign=middle;whiteSpace=wrap;rounded=0;" vertex="1" parent="1">
          <mxGeometry x="235" y="267" width="60" height="30" as="geometry" />
        </mxCell>
        <mxCell id="VSrAW8JX8qYiLQioIGpB-22" style="edgeStyle=orthogonalEdgeStyle;rounded=0;orthogonalLoop=1;jettySize=auto;html=1;entryX=0.025;entryY=0.5;entryDx=0;entryDy=0;entryPerimeter=0;exitX=0.98;exitY=0.495;exitDx=0;exitDy=0;exitPerimeter=0;" edge="1" parent="1" source="VSrAW8JX8qYiLQioIGpB-8" target="VSrAW8JX8qYiLQioIGpB-15">
          <mxGeometry relative="1" as="geometry">
            <mxPoint x="265.15" y="294.93" as="sourcePoint" />
            <mxPoint x="326.25249999999994" y="295.07000000000005" as="targetPoint" />
          </mxGeometry>
        </mxCell>
        <mxCell id="VSrAW8JX8qYiLQioIGpB-33" style="edgeStyle=orthogonalEdgeStyle;rounded=0;orthogonalLoop=1;jettySize=auto;html=1;" edge="1" parent="1" source="VSrAW8JX8qYiLQioIGpB-24" target="VSrAW8JX8qYiLQioIGpB-30">
          <mxGeometry relative="1" as="geometry" />
        </mxCell>
        <mxCell id="VSrAW8JX8qYiLQioIGpB-24" value="&lt;font style=&quot;font-size: 10px;&quot;&gt;Exibir na tela &quot;Esse ano é bissexto&quot;&lt;/font&gt;" style="whiteSpace=wrap;html=1;shadow=1;rounded=1;" vertex="1" parent="1">
          <mxGeometry x="358.87" y="400" width="142.5" height="40" as="geometry" />
        </mxCell>
        <mxCell id="VSrAW8JX8qYiLQioIGpB-26" value="&lt;font style=&quot;font-size: 10px;&quot;&gt;não&lt;/font&gt;" style="text;html=1;align=center;verticalAlign=middle;whiteSpace=wrap;rounded=0;" vertex="1" parent="1">
          <mxGeometry x="512" y="267" width="60" height="30" as="geometry" />
        </mxCell>
        <mxCell id="VSrAW8JX8qYiLQioIGpB-28" value="&lt;span style=&quot;font-size: 10px;&quot;&gt;sim&lt;/span&gt;" style="text;html=1;align=center;verticalAlign=middle;whiteSpace=wrap;rounded=0;" vertex="1" parent="1">
          <mxGeometry x="382" y="326" width="60" height="30" as="geometry" />
        </mxCell>
        <mxCell id="VSrAW8JX8qYiLQioIGpB-30" value="&lt;span style=&quot;font-size: 10px;&quot;&gt;Fim.&lt;/span&gt;" style="ellipse;whiteSpace=wrap;html=1;shadow=1;" vertex="1" parent="1">
          <mxGeometry x="663.25" y="400" width="80" height="40" as="geometry" />
        </mxCell>
      </root>
    </mxGraphModel>
  </diagram>
  <diagram id="LsNvDtOtq71XUi5BuG24" name="exercicio11">
    <mxGraphModel dx="875" dy="471" grid="1" gridSize="10" guides="1" tooltips="1" connect="1" arrows="1" fold="1" page="1" pageScale="1" pageWidth="827" pageHeight="1169" math="0" shadow="0">
      <root>
        <mxCell id="0" />
        <mxCell id="1" parent="0" />
        <mxCell id="FGi81MN0LOyWjyo3rLH4-2" value="" style="edgeStyle=orthogonalEdgeStyle;rounded=0;orthogonalLoop=1;jettySize=auto;html=1;" edge="1" parent="1" source="WR33lyokzFOP8bECAKv9-1" target="FGi81MN0LOyWjyo3rLH4-1">
          <mxGeometry relative="1" as="geometry" />
        </mxCell>
        <mxCell id="WR33lyokzFOP8bECAKv9-1" value="&lt;font style=&quot;font-size: 10px;&quot;&gt;Inicio&lt;/font&gt;" style="ellipse;whiteSpace=wrap;html=1;shadow=1;" vertex="1" parent="1">
          <mxGeometry x="330" y="30" width="80" height="40" as="geometry" />
        </mxCell>
        <mxCell id="FGi81MN0LOyWjyo3rLH4-17" style="edgeStyle=orthogonalEdgeStyle;rounded=0;orthogonalLoop=1;jettySize=auto;html=1;" edge="1" parent="1" source="FGi81MN0LOyWjyo3rLH4-1" target="FGi81MN0LOyWjyo3rLH4-13">
          <mxGeometry relative="1" as="geometry" />
        </mxCell>
        <mxCell id="FGi81MN0LOyWjyo3rLH4-1" value="&lt;font style=&quot;font-size: 10px;&quot;&gt;Digitar um número positivo (n1)&lt;/font&gt;" style="whiteSpace=wrap;html=1;shadow=1;rounded=1;" vertex="1" parent="1">
          <mxGeometry x="305" y="110" width="130" height="40" as="geometry" />
        </mxCell>
        <mxCell id="FGi81MN0LOyWjyo3rLH4-19" style="edgeStyle=orthogonalEdgeStyle;rounded=0;orthogonalLoop=1;jettySize=auto;html=1;entryX=0.5;entryY=0;entryDx=0;entryDy=0;" edge="1" parent="1" source="FGi81MN0LOyWjyo3rLH4-13" target="FGi81MN0LOyWjyo3rLH4-15">
          <mxGeometry relative="1" as="geometry" />
        </mxCell>
        <mxCell id="FGi81MN0LOyWjyo3rLH4-25" value="" style="edgeStyle=orthogonalEdgeStyle;rounded=0;orthogonalLoop=1;jettySize=auto;html=1;" edge="1" parent="1" source="FGi81MN0LOyWjyo3rLH4-13" target="FGi81MN0LOyWjyo3rLH4-21">
          <mxGeometry relative="1" as="geometry" />
        </mxCell>
        <mxCell id="FGi81MN0LOyWjyo3rLH4-13" value="&lt;font style=&quot;font-size: 10px;&quot;&gt;Esse número é &amp;gt; 0 ?&lt;/font&gt;" style="rhombus;whiteSpace=wrap;html=1;shadow=1;rounded=1;" vertex="1" parent="1">
          <mxGeometry x="160" y="180" width="130" height="70" as="geometry" />
        </mxCell>
        <mxCell id="FGi81MN0LOyWjyo3rLH4-37" value="" style="edgeStyle=orthogonalEdgeStyle;rounded=0;orthogonalLoop=1;jettySize=auto;html=1;" edge="1" parent="1" source="FGi81MN0LOyWjyo3rLH4-15" target="FGi81MN0LOyWjyo3rLH4-36">
          <mxGeometry relative="1" as="geometry" />
        </mxCell>
        <mxCell id="FGi81MN0LOyWjyo3rLH4-15" value="&lt;span style=&quot;font-size: 10px;&quot;&gt;Imprimir o número na tela&lt;/span&gt;" style="whiteSpace=wrap;html=1;shadow=1;rounded=1;" vertex="1" parent="1">
          <mxGeometry x="25" y="363" width="130" height="30" as="geometry" />
        </mxCell>
        <mxCell id="FGi81MN0LOyWjyo3rLH4-18" value="&lt;font style=&quot;font-size: 10px;&quot;&gt;não&lt;/font&gt;" style="text;html=1;align=center;verticalAlign=middle;whiteSpace=wrap;rounded=0;" vertex="1" parent="1">
          <mxGeometry x="120" y="190" width="60" height="30" as="geometry" />
        </mxCell>
        <mxCell id="FGi81MN0LOyWjyo3rLH4-20" value="&lt;span style=&quot;font-size: 10px;&quot;&gt;sim&lt;/span&gt;" style="text;html=1;align=center;verticalAlign=middle;whiteSpace=wrap;rounded=0;" vertex="1" parent="1">
          <mxGeometry x="270" y="190" width="60" height="30" as="geometry" />
        </mxCell>
        <mxCell id="FGi81MN0LOyWjyo3rLH4-26" value="" style="edgeStyle=orthogonalEdgeStyle;rounded=0;orthogonalLoop=1;jettySize=auto;html=1;" edge="1" parent="1" source="FGi81MN0LOyWjyo3rLH4-21" target="FGi81MN0LOyWjyo3rLH4-23">
          <mxGeometry relative="1" as="geometry" />
        </mxCell>
        <mxCell id="FGi81MN0LOyWjyo3rLH4-21" value="&lt;font style=&quot;font-size: 10px;&quot;&gt;Imprimir o número na tela&lt;/font&gt;" style="whiteSpace=wrap;html=1;shadow=1;rounded=1;" vertex="1" parent="1">
          <mxGeometry x="360" y="200" width="135" height="30" as="geometry" />
        </mxCell>
        <mxCell id="FGi81MN0LOyWjyo3rLH4-28" value="" style="edgeStyle=orthogonalEdgeStyle;rounded=0;orthogonalLoop=1;jettySize=auto;html=1;" edge="1" parent="1" source="FGi81MN0LOyWjyo3rLH4-23" target="FGi81MN0LOyWjyo3rLH4-27">
          <mxGeometry relative="1" as="geometry" />
        </mxCell>
        <mxCell id="FGi81MN0LOyWjyo3rLH4-23" value="&lt;span style=&quot;font-size: 10px;&quot;&gt;Subtrair 1 do número escolhido&amp;nbsp;&lt;/span&gt;&lt;div&gt;&lt;span style=&quot;font-size: 10px;&quot;&gt;(n1 - 1)&lt;/span&gt;&lt;/div&gt;" style="whiteSpace=wrap;html=1;shadow=1;rounded=1;" vertex="1" parent="1">
          <mxGeometry x="331.25" y="270" width="192.5" height="30" as="geometry" />
        </mxCell>
        <mxCell id="FGi81MN0LOyWjyo3rLH4-29" style="edgeStyle=orthogonalEdgeStyle;rounded=0;orthogonalLoop=1;jettySize=auto;html=1;entryX=1;entryY=0.5;entryDx=0;entryDy=0;" edge="1" parent="1" source="FGi81MN0LOyWjyo3rLH4-27" target="FGi81MN0LOyWjyo3rLH4-21">
          <mxGeometry relative="1" as="geometry">
            <Array as="points">
              <mxPoint x="560" y="378" />
              <mxPoint x="560" y="215" />
            </Array>
          </mxGeometry>
        </mxCell>
        <mxCell id="FGi81MN0LOyWjyo3rLH4-35" style="edgeStyle=orthogonalEdgeStyle;rounded=0;orthogonalLoop=1;jettySize=auto;html=1;entryX=1;entryY=0.5;entryDx=0;entryDy=0;" edge="1" parent="1" source="FGi81MN0LOyWjyo3rLH4-27" target="FGi81MN0LOyWjyo3rLH4-15">
          <mxGeometry relative="1" as="geometry" />
        </mxCell>
        <mxCell id="FGi81MN0LOyWjyo3rLH4-27" value="&lt;font style=&quot;font-size: 10px;&quot;&gt;O número é igual 0 ( n1 = 0 ) ?&lt;/font&gt;" style="rhombus;whiteSpace=wrap;html=1;shadow=1;rounded=1;" vertex="1" parent="1">
          <mxGeometry x="336.25" y="340" width="182.5" height="75" as="geometry" />
        </mxCell>
        <mxCell id="FGi81MN0LOyWjyo3rLH4-30" value="&lt;font style=&quot;font-size: 10px;&quot;&gt;não&lt;/font&gt;" style="text;html=1;align=center;verticalAlign=middle;whiteSpace=wrap;rounded=0;" vertex="1" parent="1">
          <mxGeometry x="495" y="350" width="60" height="30" as="geometry" />
        </mxCell>
        <mxCell id="FGi81MN0LOyWjyo3rLH4-34" value="&lt;span style=&quot;font-size: 10px;&quot;&gt;sim&lt;/span&gt;" style="text;html=1;align=center;verticalAlign=middle;whiteSpace=wrap;rounded=0;" vertex="1" parent="1">
          <mxGeometry x="295" y="350" width="60" height="30" as="geometry" />
        </mxCell>
        <mxCell id="FGi81MN0LOyWjyo3rLH4-36" value="&lt;span style=&quot;font-size: 10px;&quot;&gt;Fim.&lt;/span&gt;" style="ellipse;whiteSpace=wrap;html=1;shadow=1;" vertex="1" parent="1">
          <mxGeometry x="50" y="430" width="80" height="40" as="geometry" />
        </mxCell>
      </root>
    </mxGraphModel>
  </diagram>
</mxfile>
